M48
; DRILL file {KiCad 6.99.0-a9ca49a600~144~ubuntu20.04.1} date Пн 03 янв 2022 10:19:21
; FORMAT={-:-/ absolute / metric / decimal}
; #@! TF.CreationDate,2022-01-03T10:19:21+02:00
; #@! TF.GenerationSoftware,Kicad,Pcbnew,6.99.0-a9ca49a600~144~ubuntu20.04.1
; #@! TF.FileFunction,Plated,1,2,PTH
FMAT,2
METRIC
; #@! TA.AperFunction,Plated,PTH,ViaDrill
T1C0.400
; #@! TA.AperFunction,Plated,PTH,ComponentDrill
T2C0.813
; #@! TA.AperFunction,Plated,PTH,ComponentDrill
T3C0.900
; #@! TA.AperFunction,Plated,PTH,ComponentDrill
T4C1.270
; #@! TA.AperFunction,Plated,PTH,ComponentDrill
T5C2.200
%
G90
G05
T1
X104.902Y-49.022
X108.204Y-54.102
X108.458Y-48.768
X113.538Y-74.93
X113.792Y-66.294
X113.792Y-70.104
X114.046Y-77.216
X114.3Y-60.198
X114.3Y-68.072
X114.554Y-58.166
X114.554Y-63.754
X115.062Y-49.276
X117.094Y-64.516
X118.364Y-46.482
X118.872Y-61.214
X119.634Y-58.674
X119.888Y-66.294
X120.396Y-77.47
X120.904Y-46.736
X122.682Y-72.136
T2
X109.982Y-49.784
X109.982Y-52.324
X109.982Y-54.864
X109.982Y-57.404
X109.982Y-59.944
X109.982Y-62.484
X109.982Y-65.024
X109.982Y-67.564
X109.982Y-70.104
X109.982Y-72.644
X109.982Y-75.184
X109.982Y-77.724
X111.252Y-45.974
X111.308Y-48.514
X111.308Y-51.054
X111.308Y-53.594
X111.308Y-56.134
X111.308Y-58.674
X111.308Y-61.214
X111.308Y-63.754
X111.308Y-66.294
X111.308Y-68.834
X111.308Y-71.374
X111.308Y-73.914
X111.308Y-76.454
X125.222Y-49.784
X125.222Y-52.324
X125.222Y-54.864
X125.222Y-57.404
X125.222Y-59.944
X125.222Y-62.484
X125.222Y-65.024
X125.222Y-67.564
X125.222Y-70.104
X125.222Y-72.644
X125.222Y-75.184
X125.222Y-77.724
X126.492Y-45.974
X126.528Y-48.514
X126.528Y-51.054
X126.528Y-53.594
X126.528Y-56.134
X126.528Y-58.674
X126.528Y-61.214
X126.528Y-63.754
X126.528Y-66.294
X126.528Y-68.834
X126.528Y-71.374
X126.528Y-73.914
X126.528Y-76.454
T4
X22.08Y-49.88
X22.08Y-66.88
X22.08Y-83.88
X27.08Y-51.98
X27.08Y-68.98
X27.08Y-85.98
X32.08Y-49.88
X32.08Y-66.88
X32.08Y-83.88
X40.08Y-37.88
X40.08Y-54.854
X40.08Y-71.872
X45.08Y-39.98
X45.08Y-56.954
X45.08Y-73.972
X50.08Y-37.88
X50.08Y-54.854
X50.08Y-71.872
X58.08Y-30.88
X58.08Y-47.996
X58.08Y-65.014
X63.08Y-32.98
X63.08Y-50.096
X63.08Y-67.114
X68.08Y-30.88
X68.08Y-47.996
X68.08Y-65.014
X76.08Y-36.38
X76.08Y-53.33
X76.08Y-70.348
X81.08Y-38.48
X81.08Y-55.43
X81.08Y-72.448
X86.08Y-36.38
X86.08Y-53.33
X86.08Y-70.348
X86.95Y-82.065
X92.323Y-81.331
X94.06Y-55.87
X94.06Y-72.888
X94.08Y-38.88
X96.609Y-84.654
X99.06Y-57.97
X99.06Y-74.988
X99.08Y-40.98
X104.06Y-55.87
X104.06Y-72.888
X104.08Y-38.88
X106.926Y-88.989
X112.306Y-89.67
X115.586Y-93.989
T5
X53.53Y-42.98
X72.58Y-23.93
X72.58Y-62.03
X91.63Y-42.98
T3
X112.178Y-85.02G85X112.578Y-85.02
G05
X112.598Y-80.45G85X112.198Y-80.45
G05
X113.278Y-80.42G85X113.678Y-80.42
G05
X113.698Y-85.05G85X113.298Y-85.05
G05
X117.278Y-80.42G85X117.678Y-80.42
G05
X117.698Y-85.05G85X117.298Y-85.05
G05
X120.278Y-80.42G85X120.678Y-80.42
G05
X120.698Y-85.05G85X120.298Y-85.05
G05
T0
M30
