%FSLAX45Y45*%
G04 Gerber Fmt 4.5, Leading zero omitted, Abs format (unit mm)*
G04 Created by KiCad (PCBNEW 6.99.0-a9ca49a600~144~ubuntu20.04.1) date 2022-01-03 10:19:23*
%MOMM*%
%LPD*%
G01*
G04 APERTURE LIST*
%TA.AperFunction,Profile*%
%ADD10C,0.050000*%
%TD*%
%ADD11C,0.200000*%
%ADD12C,0.040000*%
%ADD13C,0.081280*%
%ADD14C,0.090000*%
%ADD15C,0.127000*%
%ADD16C,0.220000*%
G04 APERTURE END LIST*
D10*
X12764700Y-6985000D02*
X12763500Y-7598785D01*
X12763500Y-6248400D02*
X12764700Y-6985000D01*
X6929178Y-1820068D02*
X6509039Y-1820614D01*
X12588830Y-8331200D02*
G75*
G03*
X12763500Y-7598785I-1502716J745410D01*
G01*
X12588830Y-8331200D02*
X11367000Y-10414927D01*
X6509039Y-1820614D02*
G75*
G03*
X2011700Y-3496300I0J-6873000D01*
G01*
X10925700Y-4461492D02*
X12688500Y-4461200D01*
X10722200Y-4268400D02*
X10722205Y-2713742D01*
X12763500Y-4536200D02*
X12763500Y-6248400D01*
X1873025Y-8624502D02*
G75*
G03*
X2076800Y-8808112I197800J14642D01*
G01*
X8940913Y-9556195D02*
G75*
G03*
X2076800Y-8808112I-6921917J-31647551D01*
G01*
X11093800Y-10474800D02*
G75*
G03*
X11367000Y-10414927I107000J165000D01*
G01*
X10678729Y-2645689D02*
G75*
G03*
X6929178Y-1820068I-4944285J-13527341D01*
G01*
X10722200Y-4268400D02*
G75*
G03*
X10925700Y-4461492I200000J7000D01*
G01*
X2011700Y-3496300D02*
G75*
G03*
X1869005Y-3697670I244500J-324500D01*
G01*
X11093800Y-10474800D02*
G75*
G03*
X8940913Y-9556195I-4431600J-7404000D01*
G01*
X10722205Y-2713742D02*
G75*
G03*
X10678729Y-2645689I-75000J0D01*
G01*
X1869005Y-3697670D02*
X1873025Y-8624502D01*
X12763500Y-4536200D02*
G75*
G03*
X12688500Y-4461200I-75000J0D01*
G01*
D11*
D12*
X10470200Y-4882200D02*
X10510200Y-4922200D01*
X10510200Y-4882200D02*
X10470200Y-4922200D01*
X10800400Y-5390200D02*
X10840400Y-5430200D01*
X10840400Y-5390200D02*
X10800400Y-5430200D01*
X10825800Y-4856800D02*
X10865800Y-4896800D01*
X10865800Y-4856800D02*
X10825800Y-4896800D01*
X11333800Y-7473000D02*
X11373800Y-7513000D01*
X11373800Y-7473000D02*
X11333800Y-7513000D01*
X11359200Y-6609400D02*
X11399200Y-6649400D01*
X11399200Y-6609400D02*
X11359200Y-6649400D01*
X11359200Y-6990400D02*
X11399200Y-7030400D01*
X11399200Y-6990400D02*
X11359200Y-7030400D01*
X11384600Y-7701600D02*
X11424600Y-7741600D01*
X11424600Y-7701600D02*
X11384600Y-7741600D01*
X11410000Y-5999800D02*
X11450000Y-6039800D01*
X11450000Y-5999800D02*
X11410000Y-6039800D01*
X11410000Y-6787200D02*
X11450000Y-6827200D01*
X11450000Y-6787200D02*
X11410000Y-6827200D01*
X11435400Y-5796600D02*
X11475400Y-5836600D01*
X11475400Y-5796600D02*
X11435400Y-5836600D01*
X11435400Y-6355400D02*
X11475400Y-6395400D01*
X11475400Y-6355400D02*
X11435400Y-6395400D01*
X11486200Y-4907600D02*
X11526200Y-4947600D01*
X11526200Y-4907600D02*
X11486200Y-4947600D01*
X11689400Y-6431600D02*
X11729400Y-6471600D01*
X11729400Y-6431600D02*
X11689400Y-6471600D01*
X11816400Y-4628200D02*
X11856400Y-4668200D01*
X11856400Y-4628200D02*
X11816400Y-4668200D01*
X11867200Y-6101400D02*
X11907200Y-6141400D01*
X11907200Y-6101400D02*
X11867200Y-6141400D01*
X11943400Y-5847400D02*
X11983400Y-5887400D01*
X11983400Y-5847400D02*
X11943400Y-5887400D01*
X11968800Y-6609400D02*
X12008800Y-6649400D01*
X12008800Y-6609400D02*
X11968800Y-6649400D01*
X12019600Y-7727000D02*
X12059600Y-7767000D01*
X12059600Y-7727000D02*
X12019600Y-7767000D01*
X12070400Y-4653600D02*
X12110400Y-4693600D01*
X12110400Y-4653600D02*
X12070400Y-4693600D01*
X12248200Y-7193600D02*
X12288200Y-7233600D01*
X12288200Y-7193600D02*
X12248200Y-7233600D01*
D13*
X11038840Y-4978400D02*
G75*
G03*
X11038840Y-4978400I-40640J0D01*
G01*
X11038840Y-5232400D02*
G75*
G03*
X11038840Y-5232400I-40640J0D01*
G01*
X11038840Y-5486400D02*
G75*
G03*
X11038840Y-5486400I-40640J0D01*
G01*
X11038840Y-5740400D02*
G75*
G03*
X11038840Y-5740400I-40640J0D01*
G01*
X11038840Y-5994400D02*
G75*
G03*
X11038840Y-5994400I-40640J0D01*
G01*
X11038840Y-6248400D02*
G75*
G03*
X11038840Y-6248400I-40640J0D01*
G01*
X11038840Y-6502400D02*
G75*
G03*
X11038840Y-6502400I-40640J0D01*
G01*
X11038840Y-6756400D02*
G75*
G03*
X11038840Y-6756400I-40640J0D01*
G01*
X11038840Y-7010400D02*
G75*
G03*
X11038840Y-7010400I-40640J0D01*
G01*
X11038840Y-7264400D02*
G75*
G03*
X11038840Y-7264400I-40640J0D01*
G01*
X11038840Y-7518400D02*
G75*
G03*
X11038840Y-7518400I-40640J0D01*
G01*
X11038840Y-7772400D02*
G75*
G03*
X11038840Y-7772400I-40640J0D01*
G01*
X11165840Y-4597400D02*
G75*
G03*
X11165840Y-4597400I-40640J0D01*
G01*
X11171480Y-4851400D02*
G75*
G03*
X11171480Y-4851400I-40640J0D01*
G01*
X11171480Y-5105400D02*
G75*
G03*
X11171480Y-5105400I-40640J0D01*
G01*
X11171480Y-5359400D02*
G75*
G03*
X11171480Y-5359400I-40640J0D01*
G01*
X11171480Y-5613400D02*
G75*
G03*
X11171480Y-5613400I-40640J0D01*
G01*
X11171480Y-5867400D02*
G75*
G03*
X11171480Y-5867400I-40640J0D01*
G01*
X11171480Y-6121400D02*
G75*
G03*
X11171480Y-6121400I-40640J0D01*
G01*
X11171480Y-6375400D02*
G75*
G03*
X11171480Y-6375400I-40640J0D01*
G01*
X11171480Y-6629400D02*
G75*
G03*
X11171480Y-6629400I-40640J0D01*
G01*
X11171480Y-6883400D02*
G75*
G03*
X11171480Y-6883400I-40640J0D01*
G01*
X11171480Y-7137400D02*
G75*
G03*
X11171480Y-7137400I-40640J0D01*
G01*
X11171480Y-7391400D02*
G75*
G03*
X11171480Y-7391400I-40640J0D01*
G01*
X11171480Y-7645400D02*
G75*
G03*
X11171480Y-7645400I-40640J0D01*
G01*
X12562840Y-4978400D02*
G75*
G03*
X12562840Y-4978400I-40640J0D01*
G01*
X12562840Y-5232400D02*
G75*
G03*
X12562840Y-5232400I-40640J0D01*
G01*
X12562840Y-5486400D02*
G75*
G03*
X12562840Y-5486400I-40640J0D01*
G01*
X12562840Y-5740400D02*
G75*
G03*
X12562840Y-5740400I-40640J0D01*
G01*
X12562840Y-5994400D02*
G75*
G03*
X12562840Y-5994400I-40640J0D01*
G01*
X12562840Y-6248400D02*
G75*
G03*
X12562840Y-6248400I-40640J0D01*
G01*
X12562840Y-6502400D02*
G75*
G03*
X12562840Y-6502400I-40640J0D01*
G01*
X12562840Y-6756400D02*
G75*
G03*
X12562840Y-6756400I-40640J0D01*
G01*
X12562840Y-7010400D02*
G75*
G03*
X12562840Y-7010400I-40640J0D01*
G01*
X12562840Y-7264400D02*
G75*
G03*
X12562840Y-7264400I-40640J0D01*
G01*
X12562840Y-7518400D02*
G75*
G03*
X12562840Y-7518400I-40640J0D01*
G01*
X12562840Y-7772400D02*
G75*
G03*
X12562840Y-7772400I-40640J0D01*
G01*
X12689840Y-4597400D02*
G75*
G03*
X12689840Y-4597400I-40640J0D01*
G01*
X12693480Y-4851400D02*
G75*
G03*
X12693480Y-4851400I-40640J0D01*
G01*
X12693480Y-5105400D02*
G75*
G03*
X12693480Y-5105400I-40640J0D01*
G01*
X12693480Y-5359400D02*
G75*
G03*
X12693480Y-5359400I-40640J0D01*
G01*
X12693480Y-5613400D02*
G75*
G03*
X12693480Y-5613400I-40640J0D01*
G01*
X12693480Y-5867400D02*
G75*
G03*
X12693480Y-5867400I-40640J0D01*
G01*
X12693480Y-6121400D02*
G75*
G03*
X12693480Y-6121400I-40640J0D01*
G01*
X12693480Y-6375400D02*
G75*
G03*
X12693480Y-6375400I-40640J0D01*
G01*
X12693480Y-6629400D02*
G75*
G03*
X12693480Y-6629400I-40640J0D01*
G01*
X12693480Y-6883400D02*
G75*
G03*
X12693480Y-6883400I-40640J0D01*
G01*
X12693480Y-7137400D02*
G75*
G03*
X12693480Y-7137400I-40640J0D01*
G01*
X12693480Y-7391400D02*
G75*
G03*
X12693480Y-7391400I-40640J0D01*
G01*
X12693480Y-7645400D02*
G75*
G03*
X12693480Y-7645400I-40640J0D01*
G01*
D14*
X11237800Y-8457000D02*
X11237800Y-8547000D01*
X11192800Y-8502000D02*
X11282800Y-8502000D01*
D11*
X11217800Y-8537000D02*
X11257800Y-8537000D01*
X11217800Y-8467000D02*
X11257800Y-8467000D01*
X11257800Y-8537000D02*
G75*
G03*
X11257800Y-8467000I0J35000D01*
G01*
X11217800Y-8467000D02*
G75*
G03*
X11217800Y-8537000I0J-35000D01*
G01*
D14*
X11239800Y-8000000D02*
X11239800Y-8090000D01*
X11194800Y-8045000D02*
X11284800Y-8045000D01*
D11*
X11259800Y-8010000D02*
X11219800Y-8010000D01*
X11259800Y-8080000D02*
X11219800Y-8080000D01*
X11219800Y-8010000D02*
G75*
G03*
X11219800Y-8080000I0J-35000D01*
G01*
X11259800Y-8080000D02*
G75*
G03*
X11259800Y-8010000I0J35000D01*
G01*
D14*
X11347800Y-7997000D02*
X11347800Y-8087000D01*
X11302800Y-8042000D02*
X11392800Y-8042000D01*
D11*
X11327800Y-8077000D02*
X11367800Y-8077000D01*
X11327800Y-8007000D02*
X11367800Y-8007000D01*
X11367800Y-8077000D02*
G75*
G03*
X11367800Y-8007000I0J35000D01*
G01*
X11327800Y-8007000D02*
G75*
G03*
X11327800Y-8077000I0J-35000D01*
G01*
D14*
X11349800Y-8460000D02*
X11349800Y-8550000D01*
X11304800Y-8505000D02*
X11394800Y-8505000D01*
D11*
X11369800Y-8470000D02*
X11329800Y-8470000D01*
X11369800Y-8540000D02*
X11329800Y-8540000D01*
X11329800Y-8470000D02*
G75*
G03*
X11329800Y-8540000I0J-35000D01*
G01*
X11369800Y-8540000D02*
G75*
G03*
X11369800Y-8470000I0J35000D01*
G01*
D14*
X11747800Y-7997000D02*
X11747800Y-8087000D01*
X11702800Y-8042000D02*
X11792800Y-8042000D01*
D11*
X11727800Y-8077000D02*
X11767800Y-8077000D01*
X11727800Y-8007000D02*
X11767800Y-8007000D01*
X11767800Y-8077000D02*
G75*
G03*
X11767800Y-8007000I0J35000D01*
G01*
X11727800Y-8007000D02*
G75*
G03*
X11727800Y-8077000I0J-35000D01*
G01*
D14*
X11749800Y-8460000D02*
X11749800Y-8550000D01*
X11704800Y-8505000D02*
X11794800Y-8505000D01*
D11*
X11769800Y-8470000D02*
X11729800Y-8470000D01*
X11769800Y-8540000D02*
X11729800Y-8540000D01*
X11729800Y-8470000D02*
G75*
G03*
X11729800Y-8540000I0J-35000D01*
G01*
X11769800Y-8540000D02*
G75*
G03*
X11769800Y-8470000I0J35000D01*
G01*
D14*
X12047800Y-7997000D02*
X12047800Y-8087000D01*
X12002800Y-8042000D02*
X12092800Y-8042000D01*
D11*
X12027800Y-8077000D02*
X12067800Y-8077000D01*
X12027800Y-8007000D02*
X12067800Y-8007000D01*
X12067800Y-8077000D02*
G75*
G03*
X12067800Y-8007000I0J35000D01*
G01*
X12027800Y-8007000D02*
G75*
G03*
X12027800Y-8077000I0J-35000D01*
G01*
D14*
X12049800Y-8460000D02*
X12049800Y-8550000D01*
X12004800Y-8505000D02*
X12094800Y-8505000D01*
D11*
X12069800Y-8470000D02*
X12029800Y-8470000D01*
X12069800Y-8540000D02*
X12029800Y-8540000D01*
X12029800Y-8470000D02*
G75*
G03*
X12029800Y-8540000I0J-35000D01*
G01*
X12069800Y-8540000D02*
G75*
G03*
X12069800Y-8470000I0J35000D01*
G01*
D15*
X2252902Y-5032902D02*
X2252902Y-4943098D01*
X2163098Y-4943098D01*
X2163098Y-5032902D01*
X2252902Y-5032902D01*
X2252902Y-6732902D02*
X2252902Y-6643098D01*
X2163098Y-6643098D01*
X2163098Y-6732902D01*
X2252902Y-6732902D01*
X2252902Y-8432902D02*
X2252902Y-8343098D01*
X2163098Y-8343098D01*
X2163098Y-8432902D01*
X2252902Y-8432902D01*
X2752902Y-5242902D02*
X2752902Y-5153098D01*
X2663098Y-5153098D01*
X2663098Y-5242902D01*
X2752902Y-5242902D01*
X2752902Y-6942902D02*
X2752902Y-6853098D01*
X2663098Y-6853098D01*
X2663098Y-6942902D01*
X2752902Y-6942902D01*
X2752902Y-8642902D02*
X2752902Y-8553098D01*
X2663098Y-8553098D01*
X2663098Y-8642902D01*
X2752902Y-8642902D01*
X3252902Y-5032902D02*
X3252902Y-4943098D01*
X3163098Y-4943098D01*
X3163098Y-5032902D01*
X3252902Y-5032902D01*
X3252902Y-6732902D02*
X3252902Y-6643098D01*
X3163098Y-6643098D01*
X3163098Y-6732902D01*
X3252902Y-6732902D01*
X3252902Y-8432902D02*
X3252902Y-8343098D01*
X3163098Y-8343098D01*
X3163098Y-8432902D01*
X3252902Y-8432902D01*
X4052902Y-3832902D02*
X4052902Y-3743098D01*
X3963098Y-3743098D01*
X3963098Y-3832902D01*
X4052902Y-3832902D01*
X4052902Y-5530302D02*
X4052902Y-5440498D01*
X3963098Y-5440498D01*
X3963098Y-5530302D01*
X4052902Y-5530302D01*
X4052902Y-7232102D02*
X4052902Y-7142298D01*
X3963098Y-7142298D01*
X3963098Y-7232102D01*
X4052902Y-7232102D01*
X4552902Y-4042902D02*
X4552902Y-3953098D01*
X4463098Y-3953098D01*
X4463098Y-4042902D01*
X4552902Y-4042902D01*
X4552902Y-5740302D02*
X4552902Y-5650498D01*
X4463098Y-5650498D01*
X4463098Y-5740302D01*
X4552902Y-5740302D01*
X4552902Y-7442102D02*
X4552902Y-7352298D01*
X4463098Y-7352298D01*
X4463098Y-7442102D01*
X4552902Y-7442102D01*
X5052902Y-3832902D02*
X5052902Y-3743098D01*
X4963098Y-3743098D01*
X4963098Y-3832902D01*
X5052902Y-3832902D01*
X5052902Y-5530302D02*
X5052902Y-5440498D01*
X4963098Y-5440498D01*
X4963098Y-5530302D01*
X5052902Y-5530302D01*
X5052902Y-7232102D02*
X5052902Y-7142298D01*
X4963098Y-7142298D01*
X4963098Y-7232102D01*
X5052902Y-7232102D01*
X5852902Y-3132902D02*
X5852902Y-3043098D01*
X5763098Y-3043098D01*
X5763098Y-3132902D01*
X5852902Y-3132902D01*
X5852902Y-4844502D02*
X5852902Y-4754698D01*
X5763098Y-4754698D01*
X5763098Y-4844502D01*
X5852902Y-4844502D01*
X5852902Y-6546302D02*
X5852902Y-6456498D01*
X5763098Y-6456498D01*
X5763098Y-6546302D01*
X5852902Y-6546302D01*
X6352902Y-3342902D02*
X6352902Y-3253098D01*
X6263098Y-3253098D01*
X6263098Y-3342902D01*
X6352902Y-3342902D01*
X6352902Y-5054502D02*
X6352902Y-4964698D01*
X6263098Y-4964698D01*
X6263098Y-5054502D01*
X6352902Y-5054502D01*
X6352902Y-6756302D02*
X6352902Y-6666498D01*
X6263098Y-6666498D01*
X6263098Y-6756302D01*
X6352902Y-6756302D01*
X6852902Y-3132902D02*
X6852902Y-3043098D01*
X6763098Y-3043098D01*
X6763098Y-3132902D01*
X6852902Y-3132902D01*
X6852902Y-4844502D02*
X6852902Y-4754698D01*
X6763098Y-4754698D01*
X6763098Y-4844502D01*
X6852902Y-4844502D01*
X6852902Y-6546302D02*
X6852902Y-6456498D01*
X6763098Y-6456498D01*
X6763098Y-6546302D01*
X6852902Y-6546302D01*
X7652902Y-3682902D02*
X7652902Y-3593098D01*
X7563098Y-3593098D01*
X7563098Y-3682902D01*
X7652902Y-3682902D01*
X7652902Y-5377902D02*
X7652902Y-5288098D01*
X7563098Y-5288098D01*
X7563098Y-5377902D01*
X7652902Y-5377902D01*
X7652902Y-7079702D02*
X7652902Y-6989898D01*
X7563098Y-6989898D01*
X7563098Y-7079702D01*
X7652902Y-7079702D01*
X8152902Y-3892902D02*
X8152902Y-3803098D01*
X8063098Y-3803098D01*
X8063098Y-3892902D01*
X8152902Y-3892902D01*
X8152902Y-5587902D02*
X8152902Y-5498098D01*
X8063098Y-5498098D01*
X8063098Y-5587902D01*
X8152902Y-5587902D01*
X8152902Y-7289702D02*
X8152902Y-7199898D01*
X8063098Y-7199898D01*
X8063098Y-7289702D01*
X8152902Y-7289702D01*
X8652902Y-3682902D02*
X8652902Y-3593098D01*
X8563098Y-3593098D01*
X8563098Y-3682902D01*
X8652902Y-3682902D01*
X8652902Y-5377902D02*
X8652902Y-5288098D01*
X8563098Y-5288098D01*
X8563098Y-5377902D01*
X8652902Y-5377902D01*
X8652902Y-7079702D02*
X8652902Y-6989898D01*
X8563098Y-6989898D01*
X8563098Y-7079702D01*
X8652902Y-7079702D01*
X8739890Y-8251440D02*
X8739890Y-8161637D01*
X8650087Y-8161637D01*
X8650087Y-8251440D01*
X8739890Y-8251440D01*
X9277205Y-8178005D02*
X9277205Y-8088202D01*
X9187402Y-8088202D01*
X9187402Y-8178005D01*
X9277205Y-8178005D01*
X9450902Y-5631902D02*
X9450902Y-5542098D01*
X9361098Y-5542098D01*
X9361098Y-5631902D01*
X9450902Y-5631902D01*
X9450902Y-7333702D02*
X9450902Y-7243898D01*
X9361098Y-7243898D01*
X9361098Y-7333702D01*
X9450902Y-7333702D01*
X9452902Y-3932902D02*
X9452902Y-3843098D01*
X9363098Y-3843098D01*
X9363098Y-3932902D01*
X9452902Y-3932902D01*
X9705816Y-8510259D02*
X9705816Y-8420456D01*
X9616013Y-8420456D01*
X9616013Y-8510259D01*
X9705816Y-8510259D01*
X9950902Y-5841902D02*
X9950902Y-5752098D01*
X9861098Y-5752098D01*
X9861098Y-5841902D01*
X9950902Y-5841902D01*
X9950902Y-7543702D02*
X9950902Y-7453898D01*
X9861098Y-7453898D01*
X9861098Y-7543702D01*
X9950902Y-7543702D01*
X9952902Y-4142902D02*
X9952902Y-4053098D01*
X9863098Y-4053098D01*
X9863098Y-4142902D01*
X9952902Y-4142902D01*
X10450902Y-5631902D02*
X10450902Y-5542098D01*
X10361098Y-5542098D01*
X10361098Y-5631902D01*
X10450902Y-5631902D01*
X10450902Y-7333702D02*
X10450902Y-7243898D01*
X10361098Y-7243898D01*
X10361098Y-7333702D01*
X10450902Y-7333702D01*
X10452902Y-3932902D02*
X10452902Y-3843098D01*
X10363098Y-3843098D01*
X10363098Y-3932902D01*
X10452902Y-3932902D01*
X10737489Y-8943812D02*
X10737489Y-8854009D01*
X10647686Y-8854009D01*
X10647686Y-8943812D01*
X10737489Y-8943812D01*
X11275502Y-9011947D02*
X11275502Y-8922143D01*
X11185698Y-8922143D01*
X11185698Y-9011947D01*
X11275502Y-9011947D01*
X11603514Y-9443812D02*
X11603514Y-9354009D01*
X11513711Y-9354009D01*
X11513711Y-9443812D01*
X11603514Y-9443812D01*
D16*
X5353000Y-4408000D02*
X5463000Y-4298000D01*
X5353000Y-4188000D01*
X5243000Y-4298000D01*
X5353000Y-4408000D01*
X7258000Y-2503000D02*
X7368000Y-2393000D01*
X7258000Y-2283000D01*
X7148000Y-2393000D01*
X7258000Y-2503000D01*
X7258000Y-6313000D02*
X7368000Y-6203000D01*
X7258000Y-6093000D01*
X7148000Y-6203000D01*
X7258000Y-6313000D01*
X9163000Y-4408000D02*
X9273000Y-4298000D01*
X9163000Y-4188000D01*
X9053000Y-4298000D01*
X9163000Y-4408000D01*
D11*
X2124125Y-10819433D02*
X2124125Y-10619433D01*
X2171744Y-10619433D01*
X2200315Y-10628957D01*
X2219363Y-10648005D01*
X2228886Y-10667052D01*
X2238410Y-10705148D01*
X2238410Y-10733719D01*
X2228886Y-10771814D01*
X2219363Y-10790862D01*
X2200315Y-10809909D01*
X2171744Y-10819433D01*
X2124125Y-10819433D01*
X2324125Y-10819433D02*
X2324125Y-10686100D01*
X2324125Y-10724195D02*
X2333648Y-10705148D01*
X2343172Y-10695624D01*
X2362220Y-10686100D01*
X2381267Y-10686100D01*
X2447934Y-10819433D02*
X2447934Y-10686100D01*
X2447934Y-10619433D02*
X2438410Y-10628957D01*
X2447934Y-10638481D01*
X2457458Y-10628957D01*
X2447934Y-10619433D01*
X2447934Y-10638481D01*
X2571744Y-10819433D02*
X2552696Y-10809909D01*
X2543172Y-10790862D01*
X2543172Y-10619433D01*
X2676506Y-10819433D02*
X2657458Y-10809909D01*
X2647934Y-10790862D01*
X2647934Y-10619433D01*
X2905077Y-10819433D02*
X2905077Y-10619433D01*
X2971743Y-10762290D01*
X3038410Y-10619433D01*
X3038410Y-10819433D01*
X3219363Y-10819433D02*
X3219363Y-10714671D01*
X3209839Y-10695624D01*
X3190791Y-10686100D01*
X3152696Y-10686100D01*
X3133648Y-10695624D01*
X3219363Y-10809909D02*
X3200315Y-10819433D01*
X3152696Y-10819433D01*
X3133648Y-10809909D01*
X3124124Y-10790862D01*
X3124124Y-10771814D01*
X3133648Y-10752767D01*
X3152696Y-10743243D01*
X3200315Y-10743243D01*
X3219363Y-10733719D01*
X3314601Y-10686100D02*
X3314601Y-10886100D01*
X3314601Y-10695624D02*
X3333648Y-10686100D01*
X3371743Y-10686100D01*
X3390791Y-10695624D01*
X3400315Y-10705148D01*
X3409839Y-10724195D01*
X3409839Y-10781338D01*
X3400315Y-10800386D01*
X3390791Y-10809909D01*
X3371743Y-10819433D01*
X3333648Y-10819433D01*
X3314601Y-10809909D01*
X3495553Y-10800386D02*
X3505077Y-10809909D01*
X3495553Y-10819433D01*
X3486029Y-10809909D01*
X3495553Y-10800386D01*
X3495553Y-10819433D01*
X3495553Y-10695624D02*
X3505077Y-10705148D01*
X3495553Y-10714671D01*
X3486029Y-10705148D01*
X3495553Y-10695624D01*
X3495553Y-10714671D01*
D12*
X1826505Y-11128957D02*
X1866505Y-11168957D01*
X1866505Y-11128957D02*
X1826505Y-11168957D01*
D11*
X2162220Y-11039433D02*
X2181267Y-11039433D01*
X2200315Y-11048957D01*
X2209839Y-11058481D01*
X2219363Y-11077529D01*
X2228886Y-11115624D01*
X2228886Y-11163243D01*
X2219363Y-11201338D01*
X2209839Y-11220386D01*
X2200315Y-11229909D01*
X2181267Y-11239433D01*
X2162220Y-11239433D01*
X2143172Y-11229909D01*
X2133648Y-11220386D01*
X2124125Y-11201338D01*
X2114601Y-11163243D01*
X2114601Y-11115624D01*
X2124125Y-11077529D01*
X2133648Y-11058481D01*
X2143172Y-11048957D01*
X2162220Y-11039433D01*
X2314601Y-11220386D02*
X2324125Y-11229909D01*
X2314601Y-11239433D01*
X2305077Y-11229909D01*
X2314601Y-11220386D01*
X2314601Y-11239433D01*
X2495553Y-11106100D02*
X2495553Y-11239433D01*
X2447934Y-11029909D02*
X2400315Y-11172767D01*
X2524125Y-11172767D01*
X2638410Y-11039433D02*
X2657458Y-11039433D01*
X2676506Y-11048957D01*
X2686029Y-11058481D01*
X2695553Y-11077529D01*
X2705077Y-11115624D01*
X2705077Y-11163243D01*
X2695553Y-11201338D01*
X2686029Y-11220386D01*
X2676506Y-11229909D01*
X2657458Y-11239433D01*
X2638410Y-11239433D01*
X2619363Y-11229909D01*
X2609839Y-11220386D01*
X2600315Y-11201338D01*
X2590791Y-11163243D01*
X2590791Y-11115624D01*
X2600315Y-11077529D01*
X2609839Y-11058481D01*
X2619363Y-11048957D01*
X2638410Y-11039433D01*
X2828886Y-11039433D02*
X2847934Y-11039433D01*
X2866982Y-11048957D01*
X2876505Y-11058481D01*
X2886029Y-11077529D01*
X2895553Y-11115624D01*
X2895553Y-11163243D01*
X2886029Y-11201338D01*
X2876505Y-11220386D01*
X2866982Y-11229909D01*
X2847934Y-11239433D01*
X2828886Y-11239433D01*
X2809839Y-11229909D01*
X2800315Y-11220386D01*
X2790791Y-11201338D01*
X2781267Y-11163243D01*
X2781267Y-11115624D01*
X2790791Y-11077529D01*
X2800315Y-11058481D01*
X2809839Y-11048957D01*
X2828886Y-11039433D01*
X2981267Y-11239433D02*
X2981267Y-11106100D01*
X2981267Y-11125148D02*
X2990791Y-11115624D01*
X3009839Y-11106100D01*
X3038410Y-11106100D01*
X3057458Y-11115624D01*
X3066982Y-11134671D01*
X3066982Y-11239433D01*
X3066982Y-11134671D02*
X3076505Y-11115624D01*
X3095553Y-11106100D01*
X3124124Y-11106100D01*
X3143172Y-11115624D01*
X3152696Y-11134671D01*
X3152696Y-11239433D01*
X3247934Y-11239433D02*
X3247934Y-11106100D01*
X3247934Y-11125148D02*
X3257458Y-11115624D01*
X3276505Y-11106100D01*
X3305077Y-11106100D01*
X3324124Y-11115624D01*
X3333648Y-11134671D01*
X3333648Y-11239433D01*
X3333648Y-11134671D02*
X3343172Y-11115624D01*
X3362220Y-11106100D01*
X3390791Y-11106100D01*
X3409839Y-11115624D01*
X3419363Y-11134671D01*
X3419363Y-11239433D01*
X3809839Y-11029909D02*
X3638410Y-11287052D01*
X4066982Y-11039433D02*
X4086029Y-11039433D01*
X4105077Y-11048957D01*
X4114601Y-11058481D01*
X4124124Y-11077529D01*
X4133648Y-11115624D01*
X4133648Y-11163243D01*
X4124124Y-11201338D01*
X4114601Y-11220386D01*
X4105077Y-11229909D01*
X4086029Y-11239433D01*
X4066982Y-11239433D01*
X4047934Y-11229909D01*
X4038410Y-11220386D01*
X4028886Y-11201338D01*
X4019363Y-11163243D01*
X4019363Y-11115624D01*
X4028886Y-11077529D01*
X4038410Y-11058481D01*
X4047934Y-11048957D01*
X4066982Y-11039433D01*
X4219363Y-11220386D02*
X4228886Y-11229909D01*
X4219363Y-11239433D01*
X4209839Y-11229909D01*
X4219363Y-11220386D01*
X4219363Y-11239433D01*
X4352696Y-11039433D02*
X4371744Y-11039433D01*
X4390791Y-11048957D01*
X4400315Y-11058481D01*
X4409839Y-11077529D01*
X4419363Y-11115624D01*
X4419363Y-11163243D01*
X4409839Y-11201338D01*
X4400315Y-11220386D01*
X4390791Y-11229909D01*
X4371744Y-11239433D01*
X4352696Y-11239433D01*
X4333648Y-11229909D01*
X4324125Y-11220386D01*
X4314601Y-11201338D01*
X4305077Y-11163243D01*
X4305077Y-11115624D01*
X4314601Y-11077529D01*
X4324125Y-11058481D01*
X4333648Y-11048957D01*
X4352696Y-11039433D01*
X4609839Y-11239433D02*
X4495553Y-11239433D01*
X4552696Y-11239433D02*
X4552696Y-11039433D01*
X4533648Y-11068005D01*
X4514601Y-11087052D01*
X4495553Y-11096576D01*
X4790791Y-11039433D02*
X4695553Y-11039433D01*
X4686029Y-11134671D01*
X4695553Y-11125148D01*
X4714601Y-11115624D01*
X4762220Y-11115624D01*
X4781267Y-11125148D01*
X4790791Y-11134671D01*
X4800315Y-11153719D01*
X4800315Y-11201338D01*
X4790791Y-11220386D01*
X4781267Y-11229909D01*
X4762220Y-11239433D01*
X4714601Y-11239433D01*
X4695553Y-11229909D01*
X4686029Y-11220386D01*
X4866982Y-11039433D02*
X5000315Y-11039433D01*
X4914601Y-11239433D01*
X5066982Y-11039433D02*
X5066982Y-11077529D01*
X5143172Y-11039433D02*
X5143172Y-11077529D01*
X5438410Y-11315624D02*
X5428886Y-11306100D01*
X5409839Y-11277528D01*
X5400315Y-11258481D01*
X5390791Y-11229909D01*
X5381267Y-11182290D01*
X5381267Y-11144195D01*
X5390791Y-11096576D01*
X5400315Y-11068005D01*
X5409839Y-11048957D01*
X5428886Y-11020386D01*
X5438410Y-11010862D01*
X5505077Y-11058481D02*
X5514601Y-11048957D01*
X5533648Y-11039433D01*
X5581267Y-11039433D01*
X5600315Y-11048957D01*
X5609839Y-11058481D01*
X5619363Y-11077529D01*
X5619363Y-11096576D01*
X5609839Y-11125148D01*
X5495553Y-11239433D01*
X5619363Y-11239433D01*
X5743172Y-11039433D02*
X5762220Y-11039433D01*
X5781267Y-11048957D01*
X5790791Y-11058481D01*
X5800315Y-11077529D01*
X5809839Y-11115624D01*
X5809839Y-11163243D01*
X5800315Y-11201338D01*
X5790791Y-11220386D01*
X5781267Y-11229909D01*
X5762220Y-11239433D01*
X5743172Y-11239433D01*
X5724124Y-11229909D01*
X5714601Y-11220386D01*
X5705077Y-11201338D01*
X5695553Y-11163243D01*
X5695553Y-11115624D01*
X5705077Y-11077529D01*
X5714601Y-11058481D01*
X5724124Y-11048957D01*
X5743172Y-11039433D01*
X6047934Y-11239433D02*
X6047934Y-11039433D01*
X6133648Y-11239433D02*
X6133648Y-11134671D01*
X6124124Y-11115624D01*
X6105077Y-11106100D01*
X6076505Y-11106100D01*
X6057458Y-11115624D01*
X6047934Y-11125148D01*
X6257458Y-11239433D02*
X6238410Y-11229909D01*
X6228886Y-11220386D01*
X6219363Y-11201338D01*
X6219363Y-11144195D01*
X6228886Y-11125148D01*
X6238410Y-11115624D01*
X6257458Y-11106100D01*
X6286029Y-11106100D01*
X6305077Y-11115624D01*
X6314601Y-11125148D01*
X6324124Y-11144195D01*
X6324124Y-11201338D01*
X6314601Y-11220386D01*
X6305077Y-11229909D01*
X6286029Y-11239433D01*
X6257458Y-11239433D01*
X6438410Y-11239433D02*
X6419363Y-11229909D01*
X6409839Y-11210862D01*
X6409839Y-11039433D01*
X6590791Y-11229909D02*
X6571743Y-11239433D01*
X6533648Y-11239433D01*
X6514601Y-11229909D01*
X6505077Y-11210862D01*
X6505077Y-11134671D01*
X6514601Y-11115624D01*
X6533648Y-11106100D01*
X6571743Y-11106100D01*
X6590791Y-11115624D01*
X6600315Y-11134671D01*
X6600315Y-11153719D01*
X6505077Y-11172767D01*
X6676505Y-11229909D02*
X6695553Y-11239433D01*
X6733648Y-11239433D01*
X6752696Y-11229909D01*
X6762220Y-11210862D01*
X6762220Y-11201338D01*
X6752696Y-11182290D01*
X6733648Y-11172767D01*
X6705077Y-11172767D01*
X6686029Y-11163243D01*
X6676505Y-11144195D01*
X6676505Y-11134671D01*
X6686029Y-11115624D01*
X6705077Y-11106100D01*
X6733648Y-11106100D01*
X6752696Y-11115624D01*
X6828886Y-11315624D02*
X6838410Y-11306100D01*
X6857458Y-11277528D01*
X6866982Y-11258481D01*
X6876505Y-11229909D01*
X6886029Y-11182290D01*
X6886029Y-11144195D01*
X6876505Y-11096576D01*
X6866982Y-11068005D01*
X6857458Y-11048957D01*
X6838410Y-11020386D01*
X6828886Y-11010862D01*
D13*
X1866505Y-11412957D02*
G75*
G03*
X1866505Y-11412957I-40640J0D01*
G01*
D11*
X2162220Y-11303433D02*
X2181267Y-11303433D01*
X2200315Y-11312957D01*
X2209839Y-11322481D01*
X2219363Y-11341528D01*
X2228886Y-11379624D01*
X2228886Y-11427243D01*
X2219363Y-11465338D01*
X2209839Y-11484386D01*
X2200315Y-11493909D01*
X2181267Y-11503433D01*
X2162220Y-11503433D01*
X2143172Y-11493909D01*
X2133648Y-11484386D01*
X2124125Y-11465338D01*
X2114601Y-11427243D01*
X2114601Y-11379624D01*
X2124125Y-11341528D01*
X2133648Y-11322481D01*
X2143172Y-11312957D01*
X2162220Y-11303433D01*
X2314601Y-11484386D02*
X2324125Y-11493909D01*
X2314601Y-11503433D01*
X2305077Y-11493909D01*
X2314601Y-11484386D01*
X2314601Y-11503433D01*
X2438410Y-11389147D02*
X2419363Y-11379624D01*
X2409839Y-11370100D01*
X2400315Y-11351052D01*
X2400315Y-11341528D01*
X2409839Y-11322481D01*
X2419363Y-11312957D01*
X2438410Y-11303433D01*
X2476506Y-11303433D01*
X2495553Y-11312957D01*
X2505077Y-11322481D01*
X2514601Y-11341528D01*
X2514601Y-11351052D01*
X2505077Y-11370100D01*
X2495553Y-11379624D01*
X2476506Y-11389147D01*
X2438410Y-11389147D01*
X2419363Y-11398671D01*
X2409839Y-11408195D01*
X2400315Y-11427243D01*
X2400315Y-11465338D01*
X2409839Y-11484386D01*
X2419363Y-11493909D01*
X2438410Y-11503433D01*
X2476506Y-11503433D01*
X2495553Y-11493909D01*
X2505077Y-11484386D01*
X2514601Y-11465338D01*
X2514601Y-11427243D01*
X2505077Y-11408195D01*
X2495553Y-11398671D01*
X2476506Y-11389147D01*
X2705077Y-11503433D02*
X2590791Y-11503433D01*
X2647934Y-11503433D02*
X2647934Y-11303433D01*
X2628886Y-11332005D01*
X2609839Y-11351052D01*
X2590791Y-11360576D01*
X2771744Y-11303433D02*
X2895553Y-11303433D01*
X2828886Y-11379624D01*
X2857458Y-11379624D01*
X2876505Y-11389147D01*
X2886029Y-11398671D01*
X2895553Y-11417719D01*
X2895553Y-11465338D01*
X2886029Y-11484386D01*
X2876505Y-11493909D01*
X2857458Y-11503433D01*
X2800315Y-11503433D01*
X2781267Y-11493909D01*
X2771744Y-11484386D01*
X2981267Y-11503433D02*
X2981267Y-11370100D01*
X2981267Y-11389147D02*
X2990791Y-11379624D01*
X3009839Y-11370100D01*
X3038410Y-11370100D01*
X3057458Y-11379624D01*
X3066982Y-11398671D01*
X3066982Y-11503433D01*
X3066982Y-11398671D02*
X3076505Y-11379624D01*
X3095553Y-11370100D01*
X3124124Y-11370100D01*
X3143172Y-11379624D01*
X3152696Y-11398671D01*
X3152696Y-11503433D01*
X3247934Y-11503433D02*
X3247934Y-11370100D01*
X3247934Y-11389147D02*
X3257458Y-11379624D01*
X3276505Y-11370100D01*
X3305077Y-11370100D01*
X3324124Y-11379624D01*
X3333648Y-11398671D01*
X3333648Y-11503433D01*
X3333648Y-11398671D02*
X3343172Y-11379624D01*
X3362220Y-11370100D01*
X3390791Y-11370100D01*
X3409839Y-11379624D01*
X3419363Y-11398671D01*
X3419363Y-11503433D01*
X3809839Y-11293909D02*
X3638410Y-11551052D01*
X4066982Y-11303433D02*
X4086029Y-11303433D01*
X4105077Y-11312957D01*
X4114601Y-11322481D01*
X4124124Y-11341528D01*
X4133648Y-11379624D01*
X4133648Y-11427243D01*
X4124124Y-11465338D01*
X4114601Y-11484386D01*
X4105077Y-11493909D01*
X4086029Y-11503433D01*
X4066982Y-11503433D01*
X4047934Y-11493909D01*
X4038410Y-11484386D01*
X4028886Y-11465338D01*
X4019363Y-11427243D01*
X4019363Y-11379624D01*
X4028886Y-11341528D01*
X4038410Y-11322481D01*
X4047934Y-11312957D01*
X4066982Y-11303433D01*
X4219363Y-11484386D02*
X4228886Y-11493909D01*
X4219363Y-11503433D01*
X4209839Y-11493909D01*
X4219363Y-11484386D01*
X4219363Y-11503433D01*
X4352696Y-11303433D02*
X4371744Y-11303433D01*
X4390791Y-11312957D01*
X4400315Y-11322481D01*
X4409839Y-11341528D01*
X4419363Y-11379624D01*
X4419363Y-11427243D01*
X4409839Y-11465338D01*
X4400315Y-11484386D01*
X4390791Y-11493909D01*
X4371744Y-11503433D01*
X4352696Y-11503433D01*
X4333648Y-11493909D01*
X4324125Y-11484386D01*
X4314601Y-11465338D01*
X4305077Y-11427243D01*
X4305077Y-11379624D01*
X4314601Y-11341528D01*
X4324125Y-11322481D01*
X4333648Y-11312957D01*
X4352696Y-11303433D01*
X4486029Y-11303433D02*
X4609839Y-11303433D01*
X4543172Y-11379624D01*
X4571744Y-11379624D01*
X4590791Y-11389147D01*
X4600315Y-11398671D01*
X4609839Y-11417719D01*
X4609839Y-11465338D01*
X4600315Y-11484386D01*
X4590791Y-11493909D01*
X4571744Y-11503433D01*
X4514601Y-11503433D01*
X4495553Y-11493909D01*
X4486029Y-11484386D01*
X4686029Y-11322481D02*
X4695553Y-11312957D01*
X4714601Y-11303433D01*
X4762220Y-11303433D01*
X4781267Y-11312957D01*
X4790791Y-11322481D01*
X4800315Y-11341528D01*
X4800315Y-11360576D01*
X4790791Y-11389147D01*
X4676505Y-11503433D01*
X4800315Y-11503433D01*
X4924125Y-11303433D02*
X4943172Y-11303433D01*
X4962220Y-11312957D01*
X4971744Y-11322481D01*
X4981267Y-11341528D01*
X4990791Y-11379624D01*
X4990791Y-11427243D01*
X4981267Y-11465338D01*
X4971744Y-11484386D01*
X4962220Y-11493909D01*
X4943172Y-11503433D01*
X4924125Y-11503433D01*
X4905077Y-11493909D01*
X4895553Y-11484386D01*
X4886029Y-11465338D01*
X4876505Y-11427243D01*
X4876505Y-11379624D01*
X4886029Y-11341528D01*
X4895553Y-11322481D01*
X4905077Y-11312957D01*
X4924125Y-11303433D01*
X5066982Y-11303433D02*
X5066982Y-11341528D01*
X5143172Y-11303433D02*
X5143172Y-11341528D01*
X5438410Y-11579624D02*
X5428886Y-11570100D01*
X5409839Y-11541528D01*
X5400315Y-11522481D01*
X5390791Y-11493909D01*
X5381267Y-11446290D01*
X5381267Y-11408195D01*
X5390791Y-11360576D01*
X5400315Y-11332005D01*
X5409839Y-11312957D01*
X5428886Y-11284386D01*
X5438410Y-11274862D01*
X5609839Y-11303433D02*
X5514601Y-11303433D01*
X5505077Y-11398671D01*
X5514601Y-11389147D01*
X5533648Y-11379624D01*
X5581267Y-11379624D01*
X5600315Y-11389147D01*
X5609839Y-11398671D01*
X5619363Y-11417719D01*
X5619363Y-11465338D01*
X5609839Y-11484386D01*
X5600315Y-11493909D01*
X5581267Y-11503433D01*
X5533648Y-11503433D01*
X5514601Y-11493909D01*
X5505077Y-11484386D01*
X5743172Y-11303433D02*
X5762220Y-11303433D01*
X5781267Y-11312957D01*
X5790791Y-11322481D01*
X5800315Y-11341528D01*
X5809839Y-11379624D01*
X5809839Y-11427243D01*
X5800315Y-11465338D01*
X5790791Y-11484386D01*
X5781267Y-11493909D01*
X5762220Y-11503433D01*
X5743172Y-11503433D01*
X5724124Y-11493909D01*
X5714601Y-11484386D01*
X5705077Y-11465338D01*
X5695553Y-11427243D01*
X5695553Y-11379624D01*
X5705077Y-11341528D01*
X5714601Y-11322481D01*
X5724124Y-11312957D01*
X5743172Y-11303433D01*
X6047934Y-11503433D02*
X6047934Y-11303433D01*
X6133648Y-11503433D02*
X6133648Y-11398671D01*
X6124124Y-11379624D01*
X6105077Y-11370100D01*
X6076505Y-11370100D01*
X6057458Y-11379624D01*
X6047934Y-11389147D01*
X6257458Y-11503433D02*
X6238410Y-11493909D01*
X6228886Y-11484386D01*
X6219363Y-11465338D01*
X6219363Y-11408195D01*
X6228886Y-11389147D01*
X6238410Y-11379624D01*
X6257458Y-11370100D01*
X6286029Y-11370100D01*
X6305077Y-11379624D01*
X6314601Y-11389147D01*
X6324124Y-11408195D01*
X6324124Y-11465338D01*
X6314601Y-11484386D01*
X6305077Y-11493909D01*
X6286029Y-11503433D01*
X6257458Y-11503433D01*
X6438410Y-11503433D02*
X6419363Y-11493909D01*
X6409839Y-11474862D01*
X6409839Y-11303433D01*
X6590791Y-11493909D02*
X6571743Y-11503433D01*
X6533648Y-11503433D01*
X6514601Y-11493909D01*
X6505077Y-11474862D01*
X6505077Y-11398671D01*
X6514601Y-11379624D01*
X6533648Y-11370100D01*
X6571743Y-11370100D01*
X6590791Y-11379624D01*
X6600315Y-11398671D01*
X6600315Y-11417719D01*
X6505077Y-11436767D01*
X6676505Y-11493909D02*
X6695553Y-11503433D01*
X6733648Y-11503433D01*
X6752696Y-11493909D01*
X6762220Y-11474862D01*
X6762220Y-11465338D01*
X6752696Y-11446290D01*
X6733648Y-11436767D01*
X6705077Y-11436767D01*
X6686029Y-11427243D01*
X6676505Y-11408195D01*
X6676505Y-11398671D01*
X6686029Y-11379624D01*
X6705077Y-11370100D01*
X6733648Y-11370100D01*
X6752696Y-11379624D01*
X6828886Y-11579624D02*
X6838410Y-11570100D01*
X6857458Y-11541528D01*
X6866982Y-11522481D01*
X6876505Y-11493909D01*
X6886029Y-11446290D01*
X6886029Y-11408195D01*
X6876505Y-11360576D01*
X6866982Y-11332005D01*
X6857458Y-11312957D01*
X6838410Y-11284386D01*
X6828886Y-11274862D01*
D14*
X1821505Y-11631957D02*
X1821505Y-11721957D01*
X1776505Y-11676957D02*
X1866505Y-11676957D01*
D11*
X2162220Y-11567433D02*
X2181267Y-11567433D01*
X2200315Y-11576957D01*
X2209839Y-11586481D01*
X2219363Y-11605528D01*
X2228886Y-11643624D01*
X2228886Y-11691243D01*
X2219363Y-11729338D01*
X2209839Y-11748386D01*
X2200315Y-11757909D01*
X2181267Y-11767433D01*
X2162220Y-11767433D01*
X2143172Y-11757909D01*
X2133648Y-11748386D01*
X2124125Y-11729338D01*
X2114601Y-11691243D01*
X2114601Y-11643624D01*
X2124125Y-11605528D01*
X2133648Y-11586481D01*
X2143172Y-11576957D01*
X2162220Y-11567433D01*
X2314601Y-11748386D02*
X2324125Y-11757909D01*
X2314601Y-11767433D01*
X2305077Y-11757909D01*
X2314601Y-11748386D01*
X2314601Y-11767433D01*
X2419363Y-11767433D02*
X2457458Y-11767433D01*
X2476506Y-11757909D01*
X2486029Y-11748386D01*
X2505077Y-11719814D01*
X2514601Y-11681719D01*
X2514601Y-11605528D01*
X2505077Y-11586481D01*
X2495553Y-11576957D01*
X2476506Y-11567433D01*
X2438410Y-11567433D01*
X2419363Y-11576957D01*
X2409839Y-11586481D01*
X2400315Y-11605528D01*
X2400315Y-11653147D01*
X2409839Y-11672195D01*
X2419363Y-11681719D01*
X2438410Y-11691243D01*
X2476506Y-11691243D01*
X2495553Y-11681719D01*
X2505077Y-11672195D01*
X2514601Y-11653147D01*
X2638410Y-11567433D02*
X2657458Y-11567433D01*
X2676506Y-11576957D01*
X2686029Y-11586481D01*
X2695553Y-11605528D01*
X2705077Y-11643624D01*
X2705077Y-11691243D01*
X2695553Y-11729338D01*
X2686029Y-11748386D01*
X2676506Y-11757909D01*
X2657458Y-11767433D01*
X2638410Y-11767433D01*
X2619363Y-11757909D01*
X2609839Y-11748386D01*
X2600315Y-11729338D01*
X2590791Y-11691243D01*
X2590791Y-11643624D01*
X2600315Y-11605528D01*
X2609839Y-11586481D01*
X2619363Y-11576957D01*
X2638410Y-11567433D01*
X2828886Y-11567433D02*
X2847934Y-11567433D01*
X2866982Y-11576957D01*
X2876505Y-11586481D01*
X2886029Y-11605528D01*
X2895553Y-11643624D01*
X2895553Y-11691243D01*
X2886029Y-11729338D01*
X2876505Y-11748386D01*
X2866982Y-11757909D01*
X2847934Y-11767433D01*
X2828886Y-11767433D01*
X2809839Y-11757909D01*
X2800315Y-11748386D01*
X2790791Y-11729338D01*
X2781267Y-11691243D01*
X2781267Y-11643624D01*
X2790791Y-11605528D01*
X2800315Y-11586481D01*
X2809839Y-11576957D01*
X2828886Y-11567433D01*
X2981267Y-11767433D02*
X2981267Y-11634100D01*
X2981267Y-11653147D02*
X2990791Y-11643624D01*
X3009839Y-11634100D01*
X3038410Y-11634100D01*
X3057458Y-11643624D01*
X3066982Y-11662671D01*
X3066982Y-11767433D01*
X3066982Y-11662671D02*
X3076505Y-11643624D01*
X3095553Y-11634100D01*
X3124124Y-11634100D01*
X3143172Y-11643624D01*
X3152696Y-11662671D01*
X3152696Y-11767433D01*
X3247934Y-11767433D02*
X3247934Y-11634100D01*
X3247934Y-11653147D02*
X3257458Y-11643624D01*
X3276505Y-11634100D01*
X3305077Y-11634100D01*
X3324124Y-11643624D01*
X3333648Y-11662671D01*
X3333648Y-11767433D01*
X3333648Y-11662671D02*
X3343172Y-11643624D01*
X3362220Y-11634100D01*
X3390791Y-11634100D01*
X3409839Y-11643624D01*
X3419363Y-11662671D01*
X3419363Y-11767433D01*
X3809839Y-11557909D02*
X3638410Y-11815052D01*
X4066982Y-11567433D02*
X4086029Y-11567433D01*
X4105077Y-11576957D01*
X4114601Y-11586481D01*
X4124124Y-11605528D01*
X4133648Y-11643624D01*
X4133648Y-11691243D01*
X4124124Y-11729338D01*
X4114601Y-11748386D01*
X4105077Y-11757909D01*
X4086029Y-11767433D01*
X4066982Y-11767433D01*
X4047934Y-11757909D01*
X4038410Y-11748386D01*
X4028886Y-11729338D01*
X4019363Y-11691243D01*
X4019363Y-11643624D01*
X4028886Y-11605528D01*
X4038410Y-11586481D01*
X4047934Y-11576957D01*
X4066982Y-11567433D01*
X4219363Y-11748386D02*
X4228886Y-11757909D01*
X4219363Y-11767433D01*
X4209839Y-11757909D01*
X4219363Y-11748386D01*
X4219363Y-11767433D01*
X4352696Y-11567433D02*
X4371744Y-11567433D01*
X4390791Y-11576957D01*
X4400315Y-11586481D01*
X4409839Y-11605528D01*
X4419363Y-11643624D01*
X4419363Y-11691243D01*
X4409839Y-11729338D01*
X4400315Y-11748386D01*
X4390791Y-11757909D01*
X4371744Y-11767433D01*
X4352696Y-11767433D01*
X4333648Y-11757909D01*
X4324125Y-11748386D01*
X4314601Y-11729338D01*
X4305077Y-11691243D01*
X4305077Y-11643624D01*
X4314601Y-11605528D01*
X4324125Y-11586481D01*
X4333648Y-11576957D01*
X4352696Y-11567433D01*
X4486029Y-11567433D02*
X4609839Y-11567433D01*
X4543172Y-11643624D01*
X4571744Y-11643624D01*
X4590791Y-11653147D01*
X4600315Y-11662671D01*
X4609839Y-11681719D01*
X4609839Y-11729338D01*
X4600315Y-11748386D01*
X4590791Y-11757909D01*
X4571744Y-11767433D01*
X4514601Y-11767433D01*
X4495553Y-11757909D01*
X4486029Y-11748386D01*
X4790791Y-11567433D02*
X4695553Y-11567433D01*
X4686029Y-11662671D01*
X4695553Y-11653147D01*
X4714601Y-11643624D01*
X4762220Y-11643624D01*
X4781267Y-11653147D01*
X4790791Y-11662671D01*
X4800315Y-11681719D01*
X4800315Y-11729338D01*
X4790791Y-11748386D01*
X4781267Y-11757909D01*
X4762220Y-11767433D01*
X4714601Y-11767433D01*
X4695553Y-11757909D01*
X4686029Y-11748386D01*
X4971744Y-11634100D02*
X4971744Y-11767433D01*
X4924125Y-11557909D02*
X4876505Y-11700767D01*
X5000315Y-11700767D01*
X5066982Y-11567433D02*
X5066982Y-11605528D01*
X5143172Y-11567433D02*
X5143172Y-11605528D01*
X5438410Y-11843624D02*
X5428886Y-11834100D01*
X5409839Y-11805528D01*
X5400315Y-11786481D01*
X5390791Y-11757909D01*
X5381267Y-11710290D01*
X5381267Y-11672195D01*
X5390791Y-11624576D01*
X5400315Y-11596005D01*
X5409839Y-11576957D01*
X5428886Y-11548386D01*
X5438410Y-11538862D01*
X5552696Y-11567433D02*
X5571744Y-11567433D01*
X5590791Y-11576957D01*
X5600315Y-11586481D01*
X5609839Y-11605528D01*
X5619363Y-11643624D01*
X5619363Y-11691243D01*
X5609839Y-11729338D01*
X5600315Y-11748386D01*
X5590791Y-11757909D01*
X5571744Y-11767433D01*
X5552696Y-11767433D01*
X5533648Y-11757909D01*
X5524125Y-11748386D01*
X5514601Y-11729338D01*
X5505077Y-11691243D01*
X5505077Y-11643624D01*
X5514601Y-11605528D01*
X5524125Y-11586481D01*
X5533648Y-11576957D01*
X5552696Y-11567433D01*
X5857458Y-11767433D02*
X5857458Y-11567433D01*
X5943172Y-11767433D02*
X5943172Y-11662671D01*
X5933648Y-11643624D01*
X5914601Y-11634100D01*
X5886029Y-11634100D01*
X5866982Y-11643624D01*
X5857458Y-11653147D01*
X6066982Y-11767433D02*
X6047934Y-11757909D01*
X6038410Y-11748386D01*
X6028886Y-11729338D01*
X6028886Y-11672195D01*
X6038410Y-11653147D01*
X6047934Y-11643624D01*
X6066982Y-11634100D01*
X6095553Y-11634100D01*
X6114601Y-11643624D01*
X6124124Y-11653147D01*
X6133648Y-11672195D01*
X6133648Y-11729338D01*
X6124124Y-11748386D01*
X6114601Y-11757909D01*
X6095553Y-11767433D01*
X6066982Y-11767433D01*
X6247934Y-11767433D02*
X6228886Y-11757909D01*
X6219363Y-11738862D01*
X6219363Y-11567433D01*
X6400315Y-11757909D02*
X6381267Y-11767433D01*
X6343172Y-11767433D01*
X6324124Y-11757909D01*
X6314601Y-11738862D01*
X6314601Y-11662671D01*
X6324124Y-11643624D01*
X6343172Y-11634100D01*
X6381267Y-11634100D01*
X6400315Y-11643624D01*
X6409839Y-11662671D01*
X6409839Y-11681719D01*
X6314601Y-11700767D01*
X6486029Y-11757909D02*
X6505077Y-11767433D01*
X6543172Y-11767433D01*
X6562220Y-11757909D01*
X6571743Y-11738862D01*
X6571743Y-11729338D01*
X6562220Y-11710290D01*
X6543172Y-11700767D01*
X6514601Y-11700767D01*
X6495553Y-11691243D01*
X6486029Y-11672195D01*
X6486029Y-11662671D01*
X6495553Y-11643624D01*
X6514601Y-11634100D01*
X6543172Y-11634100D01*
X6562220Y-11643624D01*
X6809839Y-11691243D02*
X6962220Y-11691243D01*
X6886029Y-11767433D02*
X6886029Y-11615052D01*
X7238410Y-11653147D02*
X7219363Y-11643624D01*
X7209839Y-11634100D01*
X7200315Y-11615052D01*
X7200315Y-11605528D01*
X7209839Y-11586481D01*
X7219363Y-11576957D01*
X7238410Y-11567433D01*
X7276505Y-11567433D01*
X7295553Y-11576957D01*
X7305077Y-11586481D01*
X7314601Y-11605528D01*
X7314601Y-11615052D01*
X7305077Y-11634100D01*
X7295553Y-11643624D01*
X7276505Y-11653147D01*
X7238410Y-11653147D01*
X7219363Y-11662671D01*
X7209839Y-11672195D01*
X7200315Y-11691243D01*
X7200315Y-11729338D01*
X7209839Y-11748386D01*
X7219363Y-11757909D01*
X7238410Y-11767433D01*
X7276505Y-11767433D01*
X7295553Y-11757909D01*
X7305077Y-11748386D01*
X7314601Y-11729338D01*
X7314601Y-11691243D01*
X7305077Y-11672195D01*
X7295553Y-11662671D01*
X7276505Y-11653147D01*
X7543172Y-11757909D02*
X7562220Y-11767433D01*
X7600315Y-11767433D01*
X7619363Y-11757909D01*
X7628886Y-11738862D01*
X7628886Y-11729338D01*
X7619363Y-11710290D01*
X7600315Y-11700767D01*
X7571743Y-11700767D01*
X7552696Y-11691243D01*
X7543172Y-11672195D01*
X7543172Y-11662671D01*
X7552696Y-11643624D01*
X7571743Y-11634100D01*
X7600315Y-11634100D01*
X7619363Y-11643624D01*
X7743172Y-11767433D02*
X7724124Y-11757909D01*
X7714601Y-11738862D01*
X7714601Y-11567433D01*
X7847934Y-11767433D02*
X7828886Y-11757909D01*
X7819363Y-11748386D01*
X7809839Y-11729338D01*
X7809839Y-11672195D01*
X7819363Y-11653147D01*
X7828886Y-11643624D01*
X7847934Y-11634100D01*
X7876505Y-11634100D01*
X7895553Y-11643624D01*
X7905077Y-11653147D01*
X7914601Y-11672195D01*
X7914601Y-11729338D01*
X7905077Y-11748386D01*
X7895553Y-11757909D01*
X7876505Y-11767433D01*
X7847934Y-11767433D01*
X7971743Y-11634100D02*
X8047934Y-11634100D01*
X8000315Y-11567433D02*
X8000315Y-11738862D01*
X8009839Y-11757909D01*
X8028886Y-11767433D01*
X8047934Y-11767433D01*
X8105077Y-11757909D02*
X8124124Y-11767433D01*
X8162220Y-11767433D01*
X8181267Y-11757909D01*
X8190791Y-11738862D01*
X8190791Y-11729338D01*
X8181267Y-11710290D01*
X8162220Y-11700767D01*
X8133648Y-11700767D01*
X8114601Y-11691243D01*
X8105077Y-11672195D01*
X8105077Y-11662671D01*
X8114601Y-11643624D01*
X8133648Y-11634100D01*
X8162220Y-11634100D01*
X8181267Y-11643624D01*
X8257458Y-11843624D02*
X8266982Y-11834100D01*
X8286029Y-11805528D01*
X8295553Y-11786481D01*
X8305077Y-11757909D01*
X8314601Y-11710290D01*
X8314601Y-11672195D01*
X8305077Y-11624576D01*
X8295553Y-11596005D01*
X8286029Y-11576957D01*
X8266982Y-11548386D01*
X8257458Y-11538862D01*
D15*
X1847907Y-11985859D02*
X1847907Y-11896055D01*
X1758104Y-11896055D01*
X1758104Y-11985859D01*
X1847907Y-11985859D01*
D11*
X2228886Y-12031433D02*
X2114601Y-12031433D01*
X2171744Y-12031433D02*
X2171744Y-11831433D01*
X2152696Y-11860005D01*
X2133648Y-11879052D01*
X2114601Y-11888576D01*
X2314601Y-12012386D02*
X2324125Y-12021909D01*
X2314601Y-12031433D01*
X2305077Y-12021909D01*
X2314601Y-12012386D01*
X2314601Y-12031433D01*
X2400315Y-11850481D02*
X2409839Y-11840957D01*
X2428886Y-11831433D01*
X2476506Y-11831433D01*
X2495553Y-11840957D01*
X2505077Y-11850481D01*
X2514601Y-11869528D01*
X2514601Y-11888576D01*
X2505077Y-11917147D01*
X2390791Y-12031433D01*
X2514601Y-12031433D01*
X2581267Y-11831433D02*
X2714601Y-11831433D01*
X2628886Y-12031433D01*
X2828886Y-11831433D02*
X2847934Y-11831433D01*
X2866982Y-11840957D01*
X2876505Y-11850481D01*
X2886029Y-11869528D01*
X2895553Y-11907624D01*
X2895553Y-11955243D01*
X2886029Y-11993338D01*
X2876505Y-12012386D01*
X2866982Y-12021909D01*
X2847934Y-12031433D01*
X2828886Y-12031433D01*
X2809839Y-12021909D01*
X2800315Y-12012386D01*
X2790791Y-11993338D01*
X2781267Y-11955243D01*
X2781267Y-11907624D01*
X2790791Y-11869528D01*
X2800315Y-11850481D01*
X2809839Y-11840957D01*
X2828886Y-11831433D01*
X2981267Y-12031433D02*
X2981267Y-11898100D01*
X2981267Y-11917147D02*
X2990791Y-11907624D01*
X3009839Y-11898100D01*
X3038410Y-11898100D01*
X3057458Y-11907624D01*
X3066982Y-11926671D01*
X3066982Y-12031433D01*
X3066982Y-11926671D02*
X3076505Y-11907624D01*
X3095553Y-11898100D01*
X3124124Y-11898100D01*
X3143172Y-11907624D01*
X3152696Y-11926671D01*
X3152696Y-12031433D01*
X3247934Y-12031433D02*
X3247934Y-11898100D01*
X3247934Y-11917147D02*
X3257458Y-11907624D01*
X3276505Y-11898100D01*
X3305077Y-11898100D01*
X3324124Y-11907624D01*
X3333648Y-11926671D01*
X3333648Y-12031433D01*
X3333648Y-11926671D02*
X3343172Y-11907624D01*
X3362220Y-11898100D01*
X3390791Y-11898100D01*
X3409839Y-11907624D01*
X3419363Y-11926671D01*
X3419363Y-12031433D01*
X3809839Y-11821909D02*
X3638410Y-12079052D01*
X4066982Y-11831433D02*
X4086029Y-11831433D01*
X4105077Y-11840957D01*
X4114601Y-11850481D01*
X4124124Y-11869528D01*
X4133648Y-11907624D01*
X4133648Y-11955243D01*
X4124124Y-11993338D01*
X4114601Y-12012386D01*
X4105077Y-12021909D01*
X4086029Y-12031433D01*
X4066982Y-12031433D01*
X4047934Y-12021909D01*
X4038410Y-12012386D01*
X4028886Y-11993338D01*
X4019363Y-11955243D01*
X4019363Y-11907624D01*
X4028886Y-11869528D01*
X4038410Y-11850481D01*
X4047934Y-11840957D01*
X4066982Y-11831433D01*
X4219363Y-12012386D02*
X4228886Y-12021909D01*
X4219363Y-12031433D01*
X4209839Y-12021909D01*
X4219363Y-12012386D01*
X4219363Y-12031433D01*
X4352696Y-11831433D02*
X4371744Y-11831433D01*
X4390791Y-11840957D01*
X4400315Y-11850481D01*
X4409839Y-11869528D01*
X4419363Y-11907624D01*
X4419363Y-11955243D01*
X4409839Y-11993338D01*
X4400315Y-12012386D01*
X4390791Y-12021909D01*
X4371744Y-12031433D01*
X4352696Y-12031433D01*
X4333648Y-12021909D01*
X4324125Y-12012386D01*
X4314601Y-11993338D01*
X4305077Y-11955243D01*
X4305077Y-11907624D01*
X4314601Y-11869528D01*
X4324125Y-11850481D01*
X4333648Y-11840957D01*
X4352696Y-11831433D01*
X4600315Y-11831433D02*
X4505077Y-11831433D01*
X4495553Y-11926671D01*
X4505077Y-11917147D01*
X4524125Y-11907624D01*
X4571744Y-11907624D01*
X4590791Y-11917147D01*
X4600315Y-11926671D01*
X4609839Y-11945719D01*
X4609839Y-11993338D01*
X4600315Y-12012386D01*
X4590791Y-12021909D01*
X4571744Y-12031433D01*
X4524125Y-12031433D01*
X4505077Y-12021909D01*
X4495553Y-12012386D01*
X4733648Y-11831433D02*
X4752696Y-11831433D01*
X4771744Y-11840957D01*
X4781267Y-11850481D01*
X4790791Y-11869528D01*
X4800315Y-11907624D01*
X4800315Y-11955243D01*
X4790791Y-11993338D01*
X4781267Y-12012386D01*
X4771744Y-12021909D01*
X4752696Y-12031433D01*
X4733648Y-12031433D01*
X4714601Y-12021909D01*
X4705077Y-12012386D01*
X4695553Y-11993338D01*
X4686029Y-11955243D01*
X4686029Y-11907624D01*
X4695553Y-11869528D01*
X4705077Y-11850481D01*
X4714601Y-11840957D01*
X4733648Y-11831433D01*
X4924125Y-11831433D02*
X4943172Y-11831433D01*
X4962220Y-11840957D01*
X4971744Y-11850481D01*
X4981267Y-11869528D01*
X4990791Y-11907624D01*
X4990791Y-11955243D01*
X4981267Y-11993338D01*
X4971744Y-12012386D01*
X4962220Y-12021909D01*
X4943172Y-12031433D01*
X4924125Y-12031433D01*
X4905077Y-12021909D01*
X4895553Y-12012386D01*
X4886029Y-11993338D01*
X4876505Y-11955243D01*
X4876505Y-11907624D01*
X4886029Y-11869528D01*
X4895553Y-11850481D01*
X4905077Y-11840957D01*
X4924125Y-11831433D01*
X5066982Y-11831433D02*
X5066982Y-11869528D01*
X5143172Y-11831433D02*
X5143172Y-11869528D01*
X5438410Y-12107624D02*
X5428886Y-12098100D01*
X5409839Y-12069528D01*
X5400315Y-12050481D01*
X5390791Y-12021909D01*
X5381267Y-11974290D01*
X5381267Y-11936195D01*
X5390791Y-11888576D01*
X5400315Y-11860005D01*
X5409839Y-11840957D01*
X5428886Y-11812386D01*
X5438410Y-11802862D01*
X5609839Y-11831433D02*
X5514601Y-11831433D01*
X5505077Y-11926671D01*
X5514601Y-11917147D01*
X5533648Y-11907624D01*
X5581267Y-11907624D01*
X5600315Y-11917147D01*
X5609839Y-11926671D01*
X5619363Y-11945719D01*
X5619363Y-11993338D01*
X5609839Y-12012386D01*
X5600315Y-12021909D01*
X5581267Y-12031433D01*
X5533648Y-12031433D01*
X5514601Y-12021909D01*
X5505077Y-12012386D01*
X5809839Y-12031433D02*
X5695553Y-12031433D01*
X5752696Y-12031433D02*
X5752696Y-11831433D01*
X5733648Y-11860005D01*
X5714601Y-11879052D01*
X5695553Y-11888576D01*
X6047934Y-12031433D02*
X6047934Y-11831433D01*
X6133648Y-12031433D02*
X6133648Y-11926671D01*
X6124124Y-11907624D01*
X6105077Y-11898100D01*
X6076505Y-11898100D01*
X6057458Y-11907624D01*
X6047934Y-11917147D01*
X6257458Y-12031433D02*
X6238410Y-12021909D01*
X6228886Y-12012386D01*
X6219363Y-11993338D01*
X6219363Y-11936195D01*
X6228886Y-11917147D01*
X6238410Y-11907624D01*
X6257458Y-11898100D01*
X6286029Y-11898100D01*
X6305077Y-11907624D01*
X6314601Y-11917147D01*
X6324124Y-11936195D01*
X6324124Y-11993338D01*
X6314601Y-12012386D01*
X6305077Y-12021909D01*
X6286029Y-12031433D01*
X6257458Y-12031433D01*
X6438410Y-12031433D02*
X6419363Y-12021909D01*
X6409839Y-12002862D01*
X6409839Y-11831433D01*
X6590791Y-12021909D02*
X6571743Y-12031433D01*
X6533648Y-12031433D01*
X6514601Y-12021909D01*
X6505077Y-12002862D01*
X6505077Y-11926671D01*
X6514601Y-11907624D01*
X6533648Y-11898100D01*
X6571743Y-11898100D01*
X6590791Y-11907624D01*
X6600315Y-11926671D01*
X6600315Y-11945719D01*
X6505077Y-11964767D01*
X6676505Y-12021909D02*
X6695553Y-12031433D01*
X6733648Y-12031433D01*
X6752696Y-12021909D01*
X6762220Y-12002862D01*
X6762220Y-11993338D01*
X6752696Y-11974290D01*
X6733648Y-11964767D01*
X6705077Y-11964767D01*
X6686029Y-11955243D01*
X6676505Y-11936195D01*
X6676505Y-11926671D01*
X6686029Y-11907624D01*
X6705077Y-11898100D01*
X6733648Y-11898100D01*
X6752696Y-11907624D01*
X6828886Y-12107624D02*
X6838410Y-12098100D01*
X6857458Y-12069528D01*
X6866982Y-12050481D01*
X6876505Y-12021909D01*
X6886029Y-11974290D01*
X6886029Y-11936195D01*
X6876505Y-11888576D01*
X6866982Y-11860005D01*
X6857458Y-11840957D01*
X6838410Y-11812386D01*
X6828886Y-11802862D01*
X1766505Y-12304957D02*
X1866505Y-12204957D01*
X1766505Y-12104957D01*
X1666505Y-12204957D01*
X1766505Y-12304957D01*
X2114601Y-12114481D02*
X2124125Y-12104957D01*
X2143172Y-12095433D01*
X2190791Y-12095433D01*
X2209839Y-12104957D01*
X2219363Y-12114481D01*
X2228886Y-12133528D01*
X2228886Y-12152576D01*
X2219363Y-12181147D01*
X2105077Y-12295433D01*
X2228886Y-12295433D01*
X2314601Y-12276386D02*
X2324125Y-12285909D01*
X2314601Y-12295433D01*
X2305077Y-12285909D01*
X2314601Y-12276386D01*
X2314601Y-12295433D01*
X2400315Y-12114481D02*
X2409839Y-12104957D01*
X2428886Y-12095433D01*
X2476506Y-12095433D01*
X2495553Y-12104957D01*
X2505077Y-12114481D01*
X2514601Y-12133528D01*
X2514601Y-12152576D01*
X2505077Y-12181147D01*
X2390791Y-12295433D01*
X2514601Y-12295433D01*
X2638410Y-12095433D02*
X2657458Y-12095433D01*
X2676506Y-12104957D01*
X2686029Y-12114481D01*
X2695553Y-12133528D01*
X2705077Y-12171624D01*
X2705077Y-12219243D01*
X2695553Y-12257338D01*
X2686029Y-12276386D01*
X2676506Y-12285909D01*
X2657458Y-12295433D01*
X2638410Y-12295433D01*
X2619363Y-12285909D01*
X2609839Y-12276386D01*
X2600315Y-12257338D01*
X2590791Y-12219243D01*
X2590791Y-12171624D01*
X2600315Y-12133528D01*
X2609839Y-12114481D01*
X2619363Y-12104957D01*
X2638410Y-12095433D01*
X2828886Y-12095433D02*
X2847934Y-12095433D01*
X2866982Y-12104957D01*
X2876505Y-12114481D01*
X2886029Y-12133528D01*
X2895553Y-12171624D01*
X2895553Y-12219243D01*
X2886029Y-12257338D01*
X2876505Y-12276386D01*
X2866982Y-12285909D01*
X2847934Y-12295433D01*
X2828886Y-12295433D01*
X2809839Y-12285909D01*
X2800315Y-12276386D01*
X2790791Y-12257338D01*
X2781267Y-12219243D01*
X2781267Y-12171624D01*
X2790791Y-12133528D01*
X2800315Y-12114481D01*
X2809839Y-12104957D01*
X2828886Y-12095433D01*
X2981267Y-12295433D02*
X2981267Y-12162100D01*
X2981267Y-12181147D02*
X2990791Y-12171624D01*
X3009839Y-12162100D01*
X3038410Y-12162100D01*
X3057458Y-12171624D01*
X3066982Y-12190671D01*
X3066982Y-12295433D01*
X3066982Y-12190671D02*
X3076505Y-12171624D01*
X3095553Y-12162100D01*
X3124124Y-12162100D01*
X3143172Y-12171624D01*
X3152696Y-12190671D01*
X3152696Y-12295433D01*
X3247934Y-12295433D02*
X3247934Y-12162100D01*
X3247934Y-12181147D02*
X3257458Y-12171624D01*
X3276505Y-12162100D01*
X3305077Y-12162100D01*
X3324124Y-12171624D01*
X3333648Y-12190671D01*
X3333648Y-12295433D01*
X3333648Y-12190671D02*
X3343172Y-12171624D01*
X3362220Y-12162100D01*
X3390791Y-12162100D01*
X3409839Y-12171624D01*
X3419363Y-12190671D01*
X3419363Y-12295433D01*
X3809839Y-12085909D02*
X3638410Y-12343052D01*
X4066982Y-12095433D02*
X4086029Y-12095433D01*
X4105077Y-12104957D01*
X4114601Y-12114481D01*
X4124124Y-12133528D01*
X4133648Y-12171624D01*
X4133648Y-12219243D01*
X4124124Y-12257338D01*
X4114601Y-12276386D01*
X4105077Y-12285909D01*
X4086029Y-12295433D01*
X4066982Y-12295433D01*
X4047934Y-12285909D01*
X4038410Y-12276386D01*
X4028886Y-12257338D01*
X4019363Y-12219243D01*
X4019363Y-12171624D01*
X4028886Y-12133528D01*
X4038410Y-12114481D01*
X4047934Y-12104957D01*
X4066982Y-12095433D01*
X4219363Y-12276386D02*
X4228886Y-12285909D01*
X4219363Y-12295433D01*
X4209839Y-12285909D01*
X4219363Y-12276386D01*
X4219363Y-12295433D01*
X4352696Y-12095433D02*
X4371744Y-12095433D01*
X4390791Y-12104957D01*
X4400315Y-12114481D01*
X4409839Y-12133528D01*
X4419363Y-12171624D01*
X4419363Y-12219243D01*
X4409839Y-12257338D01*
X4400315Y-12276386D01*
X4390791Y-12285909D01*
X4371744Y-12295433D01*
X4352696Y-12295433D01*
X4333648Y-12285909D01*
X4324125Y-12276386D01*
X4314601Y-12257338D01*
X4305077Y-12219243D01*
X4305077Y-12171624D01*
X4314601Y-12133528D01*
X4324125Y-12114481D01*
X4333648Y-12104957D01*
X4352696Y-12095433D01*
X4533648Y-12181147D02*
X4514601Y-12171624D01*
X4505077Y-12162100D01*
X4495553Y-12143052D01*
X4495553Y-12133528D01*
X4505077Y-12114481D01*
X4514601Y-12104957D01*
X4533648Y-12095433D01*
X4571744Y-12095433D01*
X4590791Y-12104957D01*
X4600315Y-12114481D01*
X4609839Y-12133528D01*
X4609839Y-12143052D01*
X4600315Y-12162100D01*
X4590791Y-12171624D01*
X4571744Y-12181147D01*
X4533648Y-12181147D01*
X4514601Y-12190671D01*
X4505077Y-12200195D01*
X4495553Y-12219243D01*
X4495553Y-12257338D01*
X4505077Y-12276386D01*
X4514601Y-12285909D01*
X4533648Y-12295433D01*
X4571744Y-12295433D01*
X4590791Y-12285909D01*
X4600315Y-12276386D01*
X4609839Y-12257338D01*
X4609839Y-12219243D01*
X4600315Y-12200195D01*
X4590791Y-12190671D01*
X4571744Y-12181147D01*
X4781267Y-12095433D02*
X4743172Y-12095433D01*
X4724125Y-12104957D01*
X4714601Y-12114481D01*
X4695553Y-12143052D01*
X4686029Y-12181147D01*
X4686029Y-12257338D01*
X4695553Y-12276386D01*
X4705077Y-12285909D01*
X4724125Y-12295433D01*
X4762220Y-12295433D01*
X4781267Y-12285909D01*
X4790791Y-12276386D01*
X4800315Y-12257338D01*
X4800315Y-12209719D01*
X4790791Y-12190671D01*
X4781267Y-12181147D01*
X4762220Y-12171624D01*
X4724125Y-12171624D01*
X4705077Y-12181147D01*
X4695553Y-12190671D01*
X4686029Y-12209719D01*
X4971744Y-12095433D02*
X4933648Y-12095433D01*
X4914601Y-12104957D01*
X4905077Y-12114481D01*
X4886029Y-12143052D01*
X4876505Y-12181147D01*
X4876505Y-12257338D01*
X4886029Y-12276386D01*
X4895553Y-12285909D01*
X4914601Y-12295433D01*
X4952696Y-12295433D01*
X4971744Y-12285909D01*
X4981267Y-12276386D01*
X4990791Y-12257338D01*
X4990791Y-12209719D01*
X4981267Y-12190671D01*
X4971744Y-12181147D01*
X4952696Y-12171624D01*
X4914601Y-12171624D01*
X4895553Y-12181147D01*
X4886029Y-12190671D01*
X4876505Y-12209719D01*
X5066982Y-12095433D02*
X5066982Y-12133528D01*
X5143172Y-12095433D02*
X5143172Y-12133528D01*
X5438410Y-12371624D02*
X5428886Y-12362100D01*
X5409839Y-12333528D01*
X5400315Y-12314481D01*
X5390791Y-12285909D01*
X5381267Y-12238290D01*
X5381267Y-12200195D01*
X5390791Y-12152576D01*
X5400315Y-12124005D01*
X5409839Y-12104957D01*
X5428886Y-12076386D01*
X5438410Y-12066862D01*
X5600315Y-12162100D02*
X5600315Y-12295433D01*
X5552696Y-12085909D02*
X5505077Y-12228767D01*
X5628886Y-12228767D01*
X5857458Y-12295433D02*
X5857458Y-12095433D01*
X5943172Y-12295433D02*
X5943172Y-12190671D01*
X5933648Y-12171624D01*
X5914601Y-12162100D01*
X5886029Y-12162100D01*
X5866982Y-12171624D01*
X5857458Y-12181147D01*
X6066982Y-12295433D02*
X6047934Y-12285909D01*
X6038410Y-12276386D01*
X6028886Y-12257338D01*
X6028886Y-12200195D01*
X6038410Y-12181147D01*
X6047934Y-12171624D01*
X6066982Y-12162100D01*
X6095553Y-12162100D01*
X6114601Y-12171624D01*
X6124124Y-12181147D01*
X6133648Y-12200195D01*
X6133648Y-12257338D01*
X6124124Y-12276386D01*
X6114601Y-12285909D01*
X6095553Y-12295433D01*
X6066982Y-12295433D01*
X6247934Y-12295433D02*
X6228886Y-12285909D01*
X6219363Y-12266862D01*
X6219363Y-12095433D01*
X6400315Y-12285909D02*
X6381267Y-12295433D01*
X6343172Y-12295433D01*
X6324124Y-12285909D01*
X6314601Y-12266862D01*
X6314601Y-12190671D01*
X6324124Y-12171624D01*
X6343172Y-12162100D01*
X6381267Y-12162100D01*
X6400315Y-12171624D01*
X6409839Y-12190671D01*
X6409839Y-12209719D01*
X6314601Y-12228767D01*
X6486029Y-12285909D02*
X6505077Y-12295433D01*
X6543172Y-12295433D01*
X6562220Y-12285909D01*
X6571743Y-12266862D01*
X6571743Y-12257338D01*
X6562220Y-12238290D01*
X6543172Y-12228767D01*
X6514601Y-12228767D01*
X6495553Y-12219243D01*
X6486029Y-12200195D01*
X6486029Y-12190671D01*
X6495553Y-12171624D01*
X6514601Y-12162100D01*
X6543172Y-12162100D01*
X6562220Y-12171624D01*
X6638410Y-12371624D02*
X6647934Y-12362100D01*
X6666982Y-12333528D01*
X6676505Y-12314481D01*
X6686029Y-12285909D01*
X6695553Y-12238290D01*
X6695553Y-12200195D01*
X6686029Y-12152576D01*
X6676505Y-12124005D01*
X6666982Y-12104957D01*
X6647934Y-12076386D01*
X6638410Y-12066862D01*
M02*
