M48
; DRILL file {KiCad 6.99.0-a9ca49a600~144~ubuntu20.04.1} date Пн 03 янв 2022 10:19:21
; FORMAT={-:-/ absolute / metric / decimal}
; #@! TF.CreationDate,2022-01-03T10:19:21+02:00
; #@! TF.GenerationSoftware,Kicad,Pcbnew,6.99.0-a9ca49a600~144~ubuntu20.04.1
; #@! TF.FileFunction,NonPlated,1,2,NPTH
FMAT,2
METRIC
; #@! TA.AperFunction,NonPlated,NPTH,ComponentDrill
T1C0.800
; #@! TA.AperFunction,NonPlated,NPTH,ComponentDrill
T2C0.900
; #@! TA.AperFunction,NonPlated,NPTH,ComponentDrill
T3C1.702
; #@! TA.AperFunction,NonPlated,NPTH,ComponentDrill
T4C3.429
%
G90
G05
T1
X115.098Y-82.75
X122.098Y-82.75
T2
X116.864Y-46.228
X119.864Y-46.228
T3
X21.58Y-46.08
X21.58Y-63.08
X21.58Y-80.08
X32.58Y-46.08
X32.58Y-63.08
X32.58Y-80.08
X39.58Y-34.08
X39.58Y-51.054
X39.58Y-68.072
X50.58Y-34.08
X50.58Y-51.054
X50.58Y-68.072
X57.58Y-27.08
X57.58Y-44.196
X57.58Y-61.214
X68.58Y-27.08
X68.58Y-44.196
X68.58Y-61.214
X75.58Y-32.58
X75.58Y-49.53
X75.58Y-66.548
X85.483Y-85.606
X86.58Y-32.58
X86.58Y-49.53
X86.58Y-66.548
X93.56Y-52.07
X93.56Y-69.088
X93.58Y-35.08
X96.109Y-88.454
X104.56Y-52.07
X104.56Y-69.088
X104.58Y-35.08
X104.593Y-92.03
X114.119Y-97.53
T4
X27.08Y-46.08
X27.08Y-63.08
X27.08Y-80.08
X45.08Y-34.08
X45.08Y-51.054
X45.08Y-68.072
X63.08Y-27.08
X63.08Y-44.196
X63.08Y-61.214
X81.08Y-32.58
X81.08Y-49.53
X81.08Y-66.548
X90.796Y-87.03
X99.06Y-52.07
X99.06Y-69.088
X99.08Y-35.08
X109.356Y-94.78
T0
M30
