%TF.GenerationSoftware,KiCad,Pcbnew,6.99.0-a9ca49a600~144~ubuntu20.04.1*%
%TF.CreationDate,2022-01-03T10:19:32+02:00*%
%TF.ProjectId,half-swept,68616c66-2d73-4776-9570-742e6b696361,rev?*%
%TF.SameCoordinates,Original*%
%TF.FileFunction,Legend,Top*%
%TF.FilePolarity,Positive*%
%FSLAX46Y46*%
G04 Gerber Fmt 4.6, Leading zero omitted, Abs format (unit mm)*
G04 Created by KiCad (PCBNEW 6.99.0-a9ca49a600~144~ubuntu20.04.1) date 2022-01-03 10:19:32*
%MOMM*%
%LPD*%
G01*
G04 APERTURE LIST*
%ADD10C,0.150000*%
%ADD11C,0.120000*%
%ADD12C,0.300000*%
%ADD13C,0.125000*%
%ADD14C,0.010000*%
%ADD15C,0.200000*%
%ADD16C,1.524000*%
%ADD17C,1.397000*%
G04 APERTURE END LIST*
D10*
X117110095Y-82129380D02*
X117681523Y-82129380D01*
X117395809Y-83129380D02*
X117395809Y-82129380D01*
X118586285Y-83129380D02*
X118252952Y-82653190D01*
X118014857Y-83129380D02*
X118014857Y-82129380D01*
X118395809Y-82129380D01*
X118491047Y-82177000D01*
X118538666Y-82224619D01*
X118586285Y-82319857D01*
X118586285Y-82462714D01*
X118538666Y-82557952D01*
X118491047Y-82605571D01*
X118395809Y-82653190D01*
X118014857Y-82653190D01*
X119586285Y-83129380D02*
X119252952Y-82653190D01*
X119014857Y-83129380D02*
X119014857Y-82129380D01*
X119395809Y-82129380D01*
X119491047Y-82177000D01*
X119538666Y-82224619D01*
X119586285Y-82319857D01*
X119586285Y-82462714D01*
X119538666Y-82557952D01*
X119491047Y-82605571D01*
X119395809Y-82653190D01*
X119014857Y-82653190D01*
X119967238Y-83081761D02*
X120110095Y-83129380D01*
X120348190Y-83129380D01*
X120443428Y-83081761D01*
X120491047Y-83034142D01*
X120538666Y-82938904D01*
X120538666Y-82843666D01*
X120491047Y-82748428D01*
X120443428Y-82700809D01*
X120348190Y-82653190D01*
X120157714Y-82605571D01*
X120062476Y-82557952D01*
X120014857Y-82510333D01*
X119967238Y-82415095D01*
X119967238Y-82319857D01*
X120014857Y-82224619D01*
X120062476Y-82177000D01*
X120157714Y-82129380D01*
X120395809Y-82129380D01*
X120538666Y-82177000D01*
X116248142Y-45483428D02*
X116248142Y-44883428D01*
X116476714Y-44883428D01*
X116533857Y-44912000D01*
X116562428Y-44940571D01*
X116591000Y-44997714D01*
X116591000Y-45083428D01*
X116562428Y-45140571D01*
X116533857Y-45169142D01*
X116476714Y-45197714D01*
X116248142Y-45197714D01*
X116962428Y-44883428D02*
X117076714Y-44883428D01*
X117133857Y-44912000D01*
X117191000Y-44969142D01*
X117219571Y-45083428D01*
X117219571Y-45283428D01*
X117191000Y-45397714D01*
X117133857Y-45454857D01*
X117076714Y-45483428D01*
X116962428Y-45483428D01*
X116905285Y-45454857D01*
X116848142Y-45397714D01*
X116819571Y-45283428D01*
X116819571Y-45083428D01*
X116848142Y-44969142D01*
X116905285Y-44912000D01*
X116962428Y-44883428D01*
X117419571Y-44883428D02*
X117562428Y-45483428D01*
X117676714Y-45054857D01*
X117791000Y-45483428D01*
X117933857Y-44883428D01*
X118162428Y-45169142D02*
X118362428Y-45169142D01*
X118448142Y-45483428D02*
X118162428Y-45483428D01*
X118162428Y-44883428D01*
X118448142Y-44883428D01*
X119048142Y-45483428D02*
X118848142Y-45197714D01*
X118705285Y-45483428D02*
X118705285Y-44883428D01*
X118933857Y-44883428D01*
X118991000Y-44912000D01*
X119019571Y-44940571D01*
X119048142Y-44997714D01*
X119048142Y-45083428D01*
X119019571Y-45140571D01*
X118991000Y-45169142D01*
X118933857Y-45197714D01*
X118705285Y-45197714D01*
X119733857Y-45454857D02*
X119819571Y-45483428D01*
X119962428Y-45483428D01*
X120019571Y-45454857D01*
X120048142Y-45426285D01*
X120076714Y-45369142D01*
X120076714Y-45312000D01*
X120048142Y-45254857D01*
X120019571Y-45226285D01*
X119962428Y-45197714D01*
X119848142Y-45169142D01*
X119791000Y-45140571D01*
X119762428Y-45112000D01*
X119733857Y-45054857D01*
X119733857Y-44997714D01*
X119762428Y-44940571D01*
X119791000Y-44912000D01*
X119848142Y-44883428D01*
X119991000Y-44883428D01*
X120076714Y-44912000D01*
X120276714Y-44883428D02*
X120419571Y-45483428D01*
X120533857Y-45054857D01*
X120648142Y-45483428D01*
X120791000Y-44883428D01*
D11*
X115062000Y-47752000D02*
X115062000Y-44831000D01*
X121666000Y-47752000D02*
X115062000Y-47752000D01*
X121666000Y-44831000D02*
X121666000Y-47752000D01*
X115062000Y-44831000D02*
X121666000Y-44831000D01*
D12*
X118129857Y-65721857D02*
X118129857Y-66221857D01*
X118915571Y-66221857D02*
X117415571Y-66221857D01*
X117415571Y-65507571D01*
X118915571Y-64293285D02*
X118129857Y-64293285D01*
X117987000Y-64364714D01*
X117915571Y-64507571D01*
X117915571Y-64793285D01*
X117987000Y-64936142D01*
X118844142Y-64293285D02*
X118915571Y-64436142D01*
X118915571Y-64793285D01*
X118844142Y-64936142D01*
X118701285Y-65007571D01*
X118558428Y-65007571D01*
X118415571Y-64936142D01*
X118344142Y-64793285D01*
X118344142Y-64436142D01*
X118272714Y-64293285D01*
X118844142Y-62936142D02*
X118915571Y-63079000D01*
X118915571Y-63364714D01*
X118844142Y-63507571D01*
X118772714Y-63579000D01*
X118629857Y-63650428D01*
X118201285Y-63650428D01*
X118058428Y-63579000D01*
X117987000Y-63507571D01*
X117915571Y-63364714D01*
X117915571Y-63079000D01*
X117987000Y-62936142D01*
X118844142Y-61721857D02*
X118915571Y-61864714D01*
X118915571Y-62150428D01*
X118844142Y-62293285D01*
X118701285Y-62364714D01*
X118129857Y-62364714D01*
X117987000Y-62293285D01*
X117915571Y-62150428D01*
X117915571Y-61864714D01*
X117987000Y-61721857D01*
X118129857Y-61650428D01*
X118272714Y-61650428D01*
X118415571Y-62364714D01*
X118915571Y-59221857D02*
X117415571Y-59221857D01*
X118844142Y-59221857D02*
X118915571Y-59364714D01*
X118915571Y-59650428D01*
X118844142Y-59793285D01*
X118772714Y-59864714D01*
X118629857Y-59936142D01*
X118201285Y-59936142D01*
X118058428Y-59864714D01*
X117987000Y-59793285D01*
X117915571Y-59650428D01*
X117915571Y-59364714D01*
X117987000Y-59221857D01*
X118915571Y-58293285D02*
X118844142Y-58436142D01*
X118772714Y-58507571D01*
X118629857Y-58579000D01*
X118201285Y-58579000D01*
X118058428Y-58507571D01*
X117987000Y-58436142D01*
X117915571Y-58293285D01*
X117915571Y-58079000D01*
X117987000Y-57936142D01*
X118058428Y-57864714D01*
X118201285Y-57793285D01*
X118629857Y-57793285D01*
X118772714Y-57864714D01*
X118844142Y-57936142D01*
X118915571Y-58079000D01*
X118915571Y-58293285D01*
X117915571Y-57293285D02*
X118915571Y-57007571D01*
X118201285Y-56721857D01*
X118915571Y-56436142D01*
X117915571Y-56150428D01*
X117915571Y-55579000D02*
X118915571Y-55579000D01*
X118058428Y-55579000D02*
X117987000Y-55507571D01*
X117915571Y-55364714D01*
X117915571Y-55150428D01*
X117987000Y-55007571D01*
X118129857Y-54936142D01*
X118915571Y-54936142D01*
D10*
%TO.C,U1*%
D13*
X113065761Y-48853285D02*
X112899095Y-48496142D01*
X112780047Y-48853285D02*
X112780047Y-48103285D01*
X112970523Y-48103285D01*
X113018142Y-48139000D01*
X113041952Y-48174714D01*
X113065761Y-48246142D01*
X113065761Y-48353285D01*
X113041952Y-48424714D01*
X113018142Y-48460428D01*
X112970523Y-48496142D01*
X112780047Y-48496142D01*
X113256238Y-48639000D02*
X113494333Y-48639000D01*
X113208619Y-48853285D02*
X113375285Y-48103285D01*
X113541952Y-48853285D01*
X113661000Y-48103285D02*
X113780047Y-48853285D01*
X113875285Y-48317571D01*
X113970523Y-48853285D01*
X114089571Y-48103285D01*
X113137190Y-53996785D02*
X112970523Y-53639642D01*
X112851476Y-53996785D02*
X112851476Y-53246785D01*
X113041952Y-53246785D01*
X113089571Y-53282500D01*
X113113380Y-53318214D01*
X113137190Y-53389642D01*
X113137190Y-53496785D01*
X113113380Y-53568214D01*
X113089571Y-53603928D01*
X113041952Y-53639642D01*
X112851476Y-53639642D01*
X113327666Y-53961071D02*
X113399095Y-53996785D01*
X113518142Y-53996785D01*
X113565761Y-53961071D01*
X113589571Y-53925357D01*
X113613380Y-53853928D01*
X113613380Y-53782500D01*
X113589571Y-53711071D01*
X113565761Y-53675357D01*
X113518142Y-53639642D01*
X113422904Y-53603928D01*
X113375285Y-53568214D01*
X113351476Y-53532500D01*
X113327666Y-53461071D01*
X113327666Y-53389642D01*
X113351476Y-53318214D01*
X113375285Y-53282500D01*
X113422904Y-53246785D01*
X113541952Y-53246785D01*
X113613380Y-53282500D01*
X113756238Y-53246785D02*
X114041952Y-53246785D01*
X113899095Y-53996785D02*
X113899095Y-53246785D01*
X113030047Y-50679000D02*
X112982428Y-50643285D01*
X112911000Y-50643285D01*
X112839571Y-50679000D01*
X112791952Y-50750428D01*
X112768142Y-50821857D01*
X112744333Y-50964714D01*
X112744333Y-51071857D01*
X112768142Y-51214714D01*
X112791952Y-51286142D01*
X112839571Y-51357571D01*
X112911000Y-51393285D01*
X112958619Y-51393285D01*
X113030047Y-51357571D01*
X113053857Y-51321857D01*
X113053857Y-51071857D01*
X112958619Y-51071857D01*
X113268142Y-51393285D02*
X113268142Y-50643285D01*
X113553857Y-51393285D01*
X113553857Y-50643285D01*
X113791952Y-51393285D02*
X113791952Y-50643285D01*
X113911000Y-50643285D01*
X113982428Y-50679000D01*
X114030047Y-50750428D01*
X114053857Y-50821857D01*
X114077666Y-50964714D01*
X114077666Y-51071857D01*
X114053857Y-51214714D01*
X114030047Y-51286142D01*
X113982428Y-51357571D01*
X113911000Y-51393285D01*
X113791952Y-51393285D01*
X112744333Y-55723285D02*
X112911000Y-56473285D01*
X113077666Y-55723285D01*
X113530047Y-56401857D02*
X113506238Y-56437571D01*
X113434809Y-56473285D01*
X113387190Y-56473285D01*
X113315761Y-56437571D01*
X113268142Y-56366142D01*
X113244333Y-56294714D01*
X113220523Y-56151857D01*
X113220523Y-56044714D01*
X113244333Y-55901857D01*
X113268142Y-55830428D01*
X113315761Y-55759000D01*
X113387190Y-55723285D01*
X113434809Y-55723285D01*
X113506238Y-55759000D01*
X113530047Y-55794714D01*
X114030047Y-56401857D02*
X114006238Y-56437571D01*
X113934809Y-56473285D01*
X113887190Y-56473285D01*
X113815761Y-56437571D01*
X113768142Y-56366142D01*
X113744333Y-56294714D01*
X113720523Y-56151857D01*
X113720523Y-56044714D01*
X113744333Y-55901857D01*
X113768142Y-55830428D01*
X113815761Y-55759000D01*
X113887190Y-55723285D01*
X113934809Y-55723285D01*
X114006238Y-55759000D01*
X114030047Y-55794714D01*
D10*
%TO.C,B-*%
X112701428Y-45931142D02*
X112787142Y-45959714D01*
X112815714Y-45988285D01*
X112844285Y-46045428D01*
X112844285Y-46131142D01*
X112815714Y-46188285D01*
X112787142Y-46216857D01*
X112730000Y-46245428D01*
X112501428Y-46245428D01*
X112501428Y-45645428D01*
X112701428Y-45645428D01*
X112758571Y-45674000D01*
X112787142Y-45702571D01*
X112815714Y-45759714D01*
X112815714Y-45816857D01*
X112787142Y-45874000D01*
X112758571Y-45902571D01*
X112701428Y-45931142D01*
X112501428Y-45931142D01*
X113101428Y-46016857D02*
X113558571Y-46016857D01*
%TO.C,B+*%
X124385428Y-45931142D02*
X124471142Y-45959714D01*
X124499714Y-45988285D01*
X124528285Y-46045428D01*
X124528285Y-46131142D01*
X124499714Y-46188285D01*
X124471142Y-46216857D01*
X124414000Y-46245428D01*
X124185428Y-46245428D01*
X124185428Y-45645428D01*
X124385428Y-45645428D01*
X124442571Y-45674000D01*
X124471142Y-45702571D01*
X124499714Y-45759714D01*
X124499714Y-45816857D01*
X124471142Y-45874000D01*
X124442571Y-45902571D01*
X124385428Y-45931142D01*
X124185428Y-45931142D01*
X124785428Y-46016857D02*
X125242571Y-46016857D01*
X125014000Y-46245428D02*
X125014000Y-45788285D01*
D14*
%TO.C,REF\u002A\u002A*%
X70953245Y-57061867D02*
X71756191Y-56259167D01*
X71756191Y-56259167D02*
X72044559Y-56262261D01*
X72044559Y-56262261D02*
X72332927Y-56265354D01*
X72332927Y-56265354D02*
X71485703Y-57125491D01*
X71485703Y-57125491D02*
X71367778Y-57245214D01*
X71367778Y-57245214D02*
X71252979Y-57361763D01*
X71252979Y-57361763D02*
X71142525Y-57473903D01*
X71142525Y-57473903D02*
X71037633Y-57580396D01*
X71037633Y-57580396D02*
X70939521Y-57680007D01*
X70939521Y-57680007D02*
X70849406Y-57771500D01*
X70849406Y-57771500D02*
X70768507Y-57853637D01*
X70768507Y-57853637D02*
X70698040Y-57925182D01*
X70698040Y-57925182D02*
X70639224Y-57984900D01*
X70639224Y-57984900D02*
X70593277Y-58031554D01*
X70593277Y-58031554D02*
X70561416Y-58063907D01*
X70561416Y-58063907D02*
X70547635Y-58077903D01*
X70547635Y-58077903D02*
X70456791Y-58170179D01*
X70456791Y-58170179D02*
X70456791Y-55428309D01*
X70456791Y-55428309D02*
X70953245Y-55428309D01*
X70953245Y-55428309D02*
X70953245Y-57061867D01*
X70953245Y-57061867D02*
X70953245Y-57061867D01*
G36*
X70953245Y-57061867D02*
G01*
X71756191Y-56259167D01*
X72044559Y-56262261D01*
X72332927Y-56265354D01*
X71485703Y-57125491D01*
X71367778Y-57245214D01*
X71252979Y-57361763D01*
X71142525Y-57473903D01*
X71037633Y-57580396D01*
X70939521Y-57680007D01*
X70849406Y-57771500D01*
X70768507Y-57853637D01*
X70698040Y-57925182D01*
X70639224Y-57984900D01*
X70593277Y-58031554D01*
X70561416Y-58063907D01*
X70547635Y-58077903D01*
X70456791Y-58170179D01*
X70456791Y-55428309D01*
X70953245Y-55428309D01*
X70953245Y-57061867D01*
G37*
X70953245Y-57061867D02*
X71756191Y-56259167D01*
X72044559Y-56262261D01*
X72332927Y-56265354D01*
X71485703Y-57125491D01*
X71367778Y-57245214D01*
X71252979Y-57361763D01*
X71142525Y-57473903D01*
X71037633Y-57580396D01*
X70939521Y-57680007D01*
X70849406Y-57771500D01*
X70768507Y-57853637D01*
X70698040Y-57925182D01*
X70639224Y-57984900D01*
X70593277Y-58031554D01*
X70561416Y-58063907D01*
X70547635Y-58077903D01*
X70456791Y-58170179D01*
X70456791Y-55428309D01*
X70953245Y-55428309D01*
X70953245Y-57061867D01*
X71760025Y-57468398D02*
X71782728Y-57491261D01*
X71782728Y-57491261D02*
X71817207Y-57526792D01*
X71817207Y-57526792D02*
X71861476Y-57572884D01*
X71861476Y-57572884D02*
X71913543Y-57627430D01*
X71913543Y-57627430D02*
X71971422Y-57688324D01*
X71971422Y-57688324D02*
X72033121Y-57753459D01*
X72033121Y-57753459D02*
X72096654Y-57820729D01*
X72096654Y-57820729D02*
X72160029Y-57888027D01*
X72160029Y-57888027D02*
X72221259Y-57953246D01*
X72221259Y-57953246D02*
X72278355Y-58014281D01*
X72278355Y-58014281D02*
X72329327Y-58069024D01*
X72329327Y-58069024D02*
X72372187Y-58115369D01*
X72372187Y-58115369D02*
X72404945Y-58151209D01*
X72404945Y-58151209D02*
X72425613Y-58174438D01*
X72425613Y-58174438D02*
X72427906Y-58177129D01*
X72427906Y-58177129D02*
X72456207Y-58210764D01*
X72456207Y-58210764D02*
X71836193Y-58210764D01*
X71836193Y-58210764D02*
X71662843Y-58034695D01*
X71662843Y-58034695D02*
X71609101Y-57979952D01*
X71609101Y-57979952D02*
X71558818Y-57928439D01*
X71558818Y-57928439D02*
X71515002Y-57883259D01*
X71515002Y-57883259D02*
X71480656Y-57847513D01*
X71480656Y-57847513D02*
X71458788Y-57824304D01*
X71458788Y-57824304D02*
X71455611Y-57820812D01*
X71455611Y-57820812D02*
X71421729Y-57782997D01*
X71421729Y-57782997D02*
X71582764Y-57621653D01*
X71582764Y-57621653D02*
X71632477Y-57572198D01*
X71632477Y-57572198D02*
X71676701Y-57528873D01*
X71676701Y-57528873D02*
X71712848Y-57494160D01*
X71712848Y-57494160D02*
X71738330Y-57470540D01*
X71738330Y-57470540D02*
X71750559Y-57460492D01*
X71750559Y-57460492D02*
X71751090Y-57460309D01*
X71751090Y-57460309D02*
X71760025Y-57468398D01*
X71760025Y-57468398D02*
X71760025Y-57468398D01*
G36*
X71760025Y-57468398D02*
G01*
X71782728Y-57491261D01*
X71817207Y-57526792D01*
X71861476Y-57572884D01*
X71913543Y-57627430D01*
X71971422Y-57688324D01*
X72033121Y-57753459D01*
X72096654Y-57820729D01*
X72160029Y-57888027D01*
X72221259Y-57953246D01*
X72278355Y-58014281D01*
X72329327Y-58069024D01*
X72372187Y-58115369D01*
X72404945Y-58151209D01*
X72425613Y-58174438D01*
X72427906Y-58177129D01*
X72456207Y-58210764D01*
X71836193Y-58210764D01*
X71662843Y-58034695D01*
X71609101Y-57979952D01*
X71558818Y-57928439D01*
X71515002Y-57883259D01*
X71480656Y-57847513D01*
X71458788Y-57824304D01*
X71455611Y-57820812D01*
X71421729Y-57782997D01*
X71582764Y-57621653D01*
X71632477Y-57572198D01*
X71676701Y-57528873D01*
X71712848Y-57494160D01*
X71738330Y-57470540D01*
X71750559Y-57460492D01*
X71751090Y-57460309D01*
X71760025Y-57468398D01*
G37*
X71760025Y-57468398D02*
X71782728Y-57491261D01*
X71817207Y-57526792D01*
X71861476Y-57572884D01*
X71913543Y-57627430D01*
X71971422Y-57688324D01*
X72033121Y-57753459D01*
X72096654Y-57820729D01*
X72160029Y-57888027D01*
X72221259Y-57953246D01*
X72278355Y-58014281D01*
X72329327Y-58069024D01*
X72372187Y-58115369D01*
X72404945Y-58151209D01*
X72425613Y-58174438D01*
X72427906Y-58177129D01*
X72456207Y-58210764D01*
X71836193Y-58210764D01*
X71662843Y-58034695D01*
X71609101Y-57979952D01*
X71558818Y-57928439D01*
X71515002Y-57883259D01*
X71480656Y-57847513D01*
X71458788Y-57824304D01*
X71455611Y-57820812D01*
X71421729Y-57782997D01*
X71582764Y-57621653D01*
X71632477Y-57572198D01*
X71676701Y-57528873D01*
X71712848Y-57494160D01*
X71738330Y-57470540D01*
X71750559Y-57460492D01*
X71751090Y-57460309D01*
X71760025Y-57468398D01*
X73158279Y-55927650D02*
X73158471Y-56031890D01*
X73158471Y-56031890D02*
X73158960Y-56128635D01*
X73158960Y-56128635D02*
X73159710Y-56215521D01*
X73159710Y-56215521D02*
X73160686Y-56290183D01*
X73160686Y-56290183D02*
X73161855Y-56350258D01*
X73161855Y-56350258D02*
X73163182Y-56393381D01*
X73163182Y-56393381D02*
X73164631Y-56417188D01*
X73164631Y-56417188D02*
X73165539Y-56421218D01*
X73165539Y-56421218D02*
X73177970Y-56414904D01*
X73177970Y-56414904D02*
X73202816Y-56398561D01*
X73202816Y-56398561D02*
X73226950Y-56381359D01*
X73226950Y-56381359D02*
X73341647Y-56310637D01*
X73341647Y-56310637D02*
X73463863Y-56261533D01*
X73463863Y-56261533D02*
X73594246Y-56233857D01*
X73594246Y-56233857D02*
X73733447Y-56227419D01*
X73733447Y-56227419D02*
X73751259Y-56228087D01*
X73751259Y-56228087D02*
X73840894Y-56234639D01*
X73840894Y-56234639D02*
X73917377Y-56246576D01*
X73917377Y-56246576D02*
X73989029Y-56266068D01*
X73989029Y-56266068D02*
X74064167Y-56295285D01*
X74064167Y-56295285D02*
X74134018Y-56327924D01*
X74134018Y-56327924D02*
X74261951Y-56403217D01*
X74261951Y-56403217D02*
X74374871Y-56495197D01*
X74374871Y-56495197D02*
X74471765Y-56602186D01*
X74471765Y-56602186D02*
X74551623Y-56722511D01*
X74551623Y-56722511D02*
X74613433Y-56854496D01*
X74613433Y-56854496D02*
X74656185Y-56996465D01*
X74656185Y-56996465D02*
X74678866Y-57146744D01*
X74678866Y-57146744D02*
X74682427Y-57236414D01*
X74682427Y-57236414D02*
X74672136Y-57388892D01*
X74672136Y-57388892D02*
X74640780Y-57533456D01*
X74640780Y-57533456D02*
X74587635Y-57672692D01*
X74587635Y-57672692D02*
X74530380Y-57779611D01*
X74530380Y-57779611D02*
X74444668Y-57899904D01*
X74444668Y-57899904D02*
X74343055Y-58004753D01*
X74343055Y-58004753D02*
X74227722Y-58093075D01*
X74227722Y-58093075D02*
X74100847Y-58163789D01*
X74100847Y-58163789D02*
X73964611Y-58215812D01*
X73964611Y-58215812D02*
X73821192Y-58248065D01*
X73821192Y-58248065D02*
X73672771Y-58259464D01*
X73672771Y-58259464D02*
X73572525Y-58254981D01*
X73572525Y-58254981D02*
X73427917Y-58230100D01*
X73427917Y-58230100D02*
X73287349Y-58183825D01*
X73287349Y-58183825D02*
X73154176Y-58117846D01*
X73154176Y-58117846D02*
X73031756Y-58033849D01*
X73031756Y-58033849D02*
X72923444Y-57933523D01*
X72923444Y-57933523D02*
X72915050Y-57924357D01*
X72915050Y-57924357D02*
X72833919Y-57820237D01*
X72833919Y-57820237D02*
X72764227Y-57702055D01*
X72764227Y-57702055D02*
X72709061Y-57576192D01*
X72709061Y-57576192D02*
X72671508Y-57449032D01*
X72671508Y-57449032D02*
X72662639Y-57402582D01*
X72662639Y-57402582D02*
X72660026Y-57374187D01*
X72660026Y-57374187D02*
X72657681Y-57324115D01*
X72657681Y-57324115D02*
X72656212Y-57273781D01*
X72656212Y-57273781D02*
X73152550Y-57273781D01*
X73152550Y-57273781D02*
X73163122Y-57371330D01*
X73163122Y-57371330D02*
X73193554Y-57465349D01*
X73193554Y-57465349D02*
X73222208Y-57519494D01*
X73222208Y-57519494D02*
X73289142Y-57607777D01*
X73289142Y-57607777D02*
X73368623Y-57678654D01*
X73368623Y-57678654D02*
X73458055Y-57731147D01*
X73458055Y-57731147D02*
X73554841Y-57764279D01*
X73554841Y-57764279D02*
X73656382Y-57777073D01*
X73656382Y-57777073D02*
X73760083Y-57768552D01*
X73760083Y-57768552D02*
X73832910Y-57749264D01*
X73832910Y-57749264D02*
X73875907Y-57733178D01*
X73875907Y-57733178D02*
X73916812Y-57715818D01*
X73916812Y-57715818D02*
X73932979Y-57708042D01*
X73932979Y-57708042D02*
X73978265Y-57677038D01*
X73978265Y-57677038D02*
X74027588Y-57630844D01*
X74027588Y-57630844D02*
X74075645Y-57575388D01*
X74075645Y-57575388D02*
X74117130Y-57516594D01*
X74117130Y-57516594D02*
X74138618Y-57478267D01*
X74138618Y-57478267D02*
X74158799Y-57434021D01*
X74158799Y-57434021D02*
X74171444Y-57395413D01*
X74171444Y-57395413D02*
X74178801Y-57353121D01*
X74178801Y-57353121D02*
X74183119Y-57297818D01*
X74183119Y-57297818D02*
X74183401Y-57292528D01*
X74183401Y-57292528D02*
X74180033Y-57185283D01*
X74180033Y-57185283D02*
X74157177Y-57087391D01*
X74157177Y-57087391D02*
X74113525Y-56993968D01*
X74113525Y-56993968D02*
X74095755Y-56965439D01*
X74095755Y-56965439D02*
X74031213Y-56887535D01*
X74031213Y-56887535D02*
X73952396Y-56825365D01*
X73952396Y-56825365D02*
X73862760Y-56779869D01*
X73862760Y-56779869D02*
X73765761Y-56751991D01*
X73765761Y-56751991D02*
X73664857Y-56742671D01*
X73664857Y-56742671D02*
X73563505Y-56752853D01*
X73563505Y-56752853D02*
X73465159Y-56783478D01*
X73465159Y-56783478D02*
X73451156Y-56789764D01*
X73451156Y-56789764D02*
X73363204Y-56842713D01*
X73363204Y-56842713D02*
X73289214Y-56910927D01*
X73289214Y-56910927D02*
X73230171Y-56991273D01*
X73230171Y-56991273D02*
X73187058Y-57080620D01*
X73187058Y-57080620D02*
X73160856Y-57175833D01*
X73160856Y-57175833D02*
X73152550Y-57273781D01*
X73152550Y-57273781D02*
X72656212Y-57273781D01*
X72656212Y-57273781D02*
X72655628Y-57253778D01*
X72655628Y-57253778D02*
X72653889Y-57164589D01*
X72653889Y-57164589D02*
X72652486Y-57057960D01*
X72652486Y-57057960D02*
X72651442Y-56935304D01*
X72651442Y-56935304D02*
X72650778Y-56798032D01*
X72650778Y-56798032D02*
X72650517Y-56647558D01*
X72650517Y-56647558D02*
X72650514Y-56635822D01*
X72650514Y-56635822D02*
X72650427Y-55944108D01*
X72650427Y-55944108D02*
X73158131Y-55434082D01*
X73158131Y-55434082D02*
X73158279Y-55927650D01*
X73158279Y-55927650D02*
X73158279Y-55927650D01*
G36*
X72653889Y-57164589D02*
G01*
X72652486Y-57057960D01*
X72651442Y-56935304D01*
X72650778Y-56798032D01*
X72650517Y-56647558D01*
X72650514Y-56635822D01*
X72650427Y-55944108D01*
X73158131Y-55434082D01*
X73158279Y-55927650D01*
X73158471Y-56031890D01*
X73158960Y-56128635D01*
X73159710Y-56215521D01*
X73160686Y-56290183D01*
X73161855Y-56350258D01*
X73163182Y-56393381D01*
X73164631Y-56417188D01*
X73165539Y-56421218D01*
X73177970Y-56414904D01*
X73202816Y-56398561D01*
X73226950Y-56381359D01*
X73341647Y-56310637D01*
X73463863Y-56261533D01*
X73594246Y-56233857D01*
X73733447Y-56227419D01*
X73751259Y-56228087D01*
X73840894Y-56234639D01*
X73917377Y-56246576D01*
X73989029Y-56266068D01*
X74064167Y-56295285D01*
X74134018Y-56327924D01*
X74261951Y-56403217D01*
X74374871Y-56495197D01*
X74471765Y-56602186D01*
X74551623Y-56722511D01*
X74613433Y-56854496D01*
X74656185Y-56996465D01*
X74678866Y-57146744D01*
X74682427Y-57236414D01*
X74672136Y-57388892D01*
X74640780Y-57533456D01*
X74587635Y-57672692D01*
X74530380Y-57779611D01*
X74444668Y-57899904D01*
X74343055Y-58004753D01*
X74227722Y-58093075D01*
X74100847Y-58163789D01*
X73964611Y-58215812D01*
X73821192Y-58248065D01*
X73672771Y-58259464D01*
X73572525Y-58254981D01*
X73427917Y-58230100D01*
X73287349Y-58183825D01*
X73154176Y-58117846D01*
X73031756Y-58033849D01*
X72923444Y-57933523D01*
X72915050Y-57924357D01*
X72833919Y-57820237D01*
X72764227Y-57702055D01*
X72709061Y-57576192D01*
X72671508Y-57449032D01*
X72662639Y-57402582D01*
X72660026Y-57374187D01*
X72657681Y-57324115D01*
X72656212Y-57273781D01*
X73152550Y-57273781D01*
X73163122Y-57371330D01*
X73193554Y-57465349D01*
X73222208Y-57519494D01*
X73289142Y-57607777D01*
X73368623Y-57678654D01*
X73458055Y-57731147D01*
X73554841Y-57764279D01*
X73656382Y-57777073D01*
X73760083Y-57768552D01*
X73832910Y-57749264D01*
X73875907Y-57733178D01*
X73916812Y-57715818D01*
X73932979Y-57708042D01*
X73978265Y-57677038D01*
X74027588Y-57630844D01*
X74075645Y-57575388D01*
X74117130Y-57516594D01*
X74138618Y-57478267D01*
X74158799Y-57434021D01*
X74171444Y-57395413D01*
X74178801Y-57353121D01*
X74183119Y-57297818D01*
X74183401Y-57292528D01*
X74180033Y-57185283D01*
X74157177Y-57087391D01*
X74113525Y-56993968D01*
X74095755Y-56965439D01*
X74031213Y-56887535D01*
X73952396Y-56825365D01*
X73862760Y-56779869D01*
X73765761Y-56751991D01*
X73664857Y-56742671D01*
X73563505Y-56752853D01*
X73465159Y-56783478D01*
X73451156Y-56789764D01*
X73363204Y-56842713D01*
X73289214Y-56910927D01*
X73230171Y-56991273D01*
X73187058Y-57080620D01*
X73160856Y-57175833D01*
X73152550Y-57273781D01*
X72656212Y-57273781D01*
X72655628Y-57253778D01*
X72653889Y-57164589D01*
G37*
X72653889Y-57164589D02*
X72652486Y-57057960D01*
X72651442Y-56935304D01*
X72650778Y-56798032D01*
X72650517Y-56647558D01*
X72650514Y-56635822D01*
X72650427Y-55944108D01*
X73158131Y-55434082D01*
X73158279Y-55927650D01*
X73158471Y-56031890D01*
X73158960Y-56128635D01*
X73159710Y-56215521D01*
X73160686Y-56290183D01*
X73161855Y-56350258D01*
X73163182Y-56393381D01*
X73164631Y-56417188D01*
X73165539Y-56421218D01*
X73177970Y-56414904D01*
X73202816Y-56398561D01*
X73226950Y-56381359D01*
X73341647Y-56310637D01*
X73463863Y-56261533D01*
X73594246Y-56233857D01*
X73733447Y-56227419D01*
X73751259Y-56228087D01*
X73840894Y-56234639D01*
X73917377Y-56246576D01*
X73989029Y-56266068D01*
X74064167Y-56295285D01*
X74134018Y-56327924D01*
X74261951Y-56403217D01*
X74374871Y-56495197D01*
X74471765Y-56602186D01*
X74551623Y-56722511D01*
X74613433Y-56854496D01*
X74656185Y-56996465D01*
X74678866Y-57146744D01*
X74682427Y-57236414D01*
X74672136Y-57388892D01*
X74640780Y-57533456D01*
X74587635Y-57672692D01*
X74530380Y-57779611D01*
X74444668Y-57899904D01*
X74343055Y-58004753D01*
X74227722Y-58093075D01*
X74100847Y-58163789D01*
X73964611Y-58215812D01*
X73821192Y-58248065D01*
X73672771Y-58259464D01*
X73572525Y-58254981D01*
X73427917Y-58230100D01*
X73287349Y-58183825D01*
X73154176Y-58117846D01*
X73031756Y-58033849D01*
X72923444Y-57933523D01*
X72915050Y-57924357D01*
X72833919Y-57820237D01*
X72764227Y-57702055D01*
X72709061Y-57576192D01*
X72671508Y-57449032D01*
X72662639Y-57402582D01*
X72660026Y-57374187D01*
X72657681Y-57324115D01*
X72656212Y-57273781D01*
X73152550Y-57273781D01*
X73163122Y-57371330D01*
X73193554Y-57465349D01*
X73222208Y-57519494D01*
X73289142Y-57607777D01*
X73368623Y-57678654D01*
X73458055Y-57731147D01*
X73554841Y-57764279D01*
X73656382Y-57777073D01*
X73760083Y-57768552D01*
X73832910Y-57749264D01*
X73875907Y-57733178D01*
X73916812Y-57715818D01*
X73932979Y-57708042D01*
X73978265Y-57677038D01*
X74027588Y-57630844D01*
X74075645Y-57575388D01*
X74117130Y-57516594D01*
X74138618Y-57478267D01*
X74158799Y-57434021D01*
X74171444Y-57395413D01*
X74178801Y-57353121D01*
X74183119Y-57297818D01*
X74183401Y-57292528D01*
X74180033Y-57185283D01*
X74157177Y-57087391D01*
X74113525Y-56993968D01*
X74095755Y-56965439D01*
X74031213Y-56887535D01*
X73952396Y-56825365D01*
X73862760Y-56779869D01*
X73765761Y-56751991D01*
X73664857Y-56742671D01*
X73563505Y-56752853D01*
X73465159Y-56783478D01*
X73451156Y-56789764D01*
X73363204Y-56842713D01*
X73289214Y-56910927D01*
X73230171Y-56991273D01*
X73187058Y-57080620D01*
X73160856Y-57175833D01*
X73152550Y-57273781D01*
X72656212Y-57273781D01*
X72655628Y-57253778D01*
X72653889Y-57164589D01*
D15*
X79588047Y-23693866D02*
G75*
G03*
X75437500Y-22660000I-7008047J-19286134D01*
G01*
X69722500Y-22660000D02*
G75*
G03*
X65571952Y-23693866I2857500J-20320000D01*
G01*
X75437500Y-63300000D02*
G75*
G03*
X79588047Y-62266134I-2857500J20320000D01*
G01*
X65571954Y-62266135D02*
G75*
G03*
X69722500Y-63300000I7008046J19286135D01*
G01*
X92900000Y-40122500D02*
G75*
G03*
X91866135Y-35971955I-20320000J-2857500D01*
G01*
X91866135Y-49988046D02*
G75*
G03*
X92900000Y-45837500I-19286135J7008046D01*
G01*
X52260000Y-45837500D02*
G75*
G03*
X53293866Y-49988047I20320000J2857500D01*
G01*
X53293866Y-35971952D02*
G75*
G03*
X52260000Y-40122500I19286134J-7008048D01*
G01*
X71451615Y-53715864D02*
G75*
G03*
X72580000Y-53775000I1128385J10735864D01*
G01*
X72580000Y-53775000D02*
G75*
G03*
X73708385Y-53715864I0J10795000D01*
G01*
X72580000Y-32185000D02*
G75*
G03*
X71451615Y-32244136I0J-10795000D01*
G01*
X73708385Y-32244136D02*
G75*
G03*
X72580000Y-32185000I-1128385J-10735864D01*
G01*
D10*
%TO.C,U1*%
X125603000Y-77724000D02*
X125603000Y-47244000D01*
X127508000Y-77724000D02*
X125603000Y-77724000D01*
X127508000Y-47244000D02*
X127508000Y-77724000D01*
X125603000Y-47244000D02*
X127508000Y-47244000D01*
X110363000Y-77724000D02*
X110363000Y-47244000D01*
X112268000Y-77724000D02*
X110363000Y-77724000D01*
X112268000Y-47244000D02*
X112268000Y-77724000D01*
X110363000Y-47244000D02*
X112268000Y-47244000D01*
X112268000Y-77724000D02*
X125603000Y-77724000D01*
X112268000Y-47244000D02*
X125603000Y-47244000D01*
%TO.C,J2*%
X125698000Y-85550000D02*
X125698000Y-79950000D01*
X123698000Y-79950000D02*
X125698000Y-79950000D01*
X123698000Y-85550000D02*
X125698000Y-85550000D01*
X123698000Y-79700000D02*
X111598000Y-79700000D01*
X123698000Y-85800000D02*
X111598000Y-85800000D01*
X111598000Y-85800000D02*
X111598000Y-79700000D01*
X123698000Y-85800000D02*
X123698000Y-79700000D01*
%TO.C,B-*%
X110252000Y-44974000D02*
X110252000Y-46974000D01*
X110252000Y-46974000D02*
X112252000Y-46974000D01*
X112252000Y-46974000D02*
X112252000Y-44974000D01*
X112252000Y-44974000D02*
X110252000Y-44974000D01*
%TO.C,B+*%
X125492000Y-44974000D02*
X125492000Y-46974000D01*
X125492000Y-46974000D02*
X127492000Y-46974000D01*
X127492000Y-46974000D02*
X127492000Y-44974000D01*
X127492000Y-44974000D02*
X125492000Y-44974000D01*
%TD*%
D16*
%TO.C,U1*%
X125222000Y-49784000D03*
X125222000Y-52324000D03*
X125222000Y-54864000D03*
X125222000Y-57404000D03*
X125222000Y-59944000D03*
X125222000Y-62484000D03*
X125222000Y-65024000D03*
X125222000Y-67564000D03*
X125222000Y-70104000D03*
X125222000Y-72644000D03*
X125222000Y-75184000D03*
X125222000Y-77724000D03*
X109982000Y-77724000D03*
X109982000Y-75184000D03*
X109982000Y-72644000D03*
X109982000Y-70104000D03*
X109982000Y-67564000D03*
X109982000Y-65024000D03*
X109982000Y-62484000D03*
X109982000Y-59944000D03*
X109982000Y-57404000D03*
X109982000Y-54864000D03*
X109982000Y-52324000D03*
X109982000Y-49784000D03*
X126528400Y-48514000D03*
X126528400Y-51054000D03*
X126528400Y-53594000D03*
X126528400Y-56134000D03*
X126528400Y-58674000D03*
X126528400Y-61214000D03*
X126528400Y-63754000D03*
X126528400Y-66294000D03*
X126528400Y-68834000D03*
X126528400Y-71374000D03*
X126528400Y-73914000D03*
X126528400Y-76454000D03*
X111308400Y-76454000D03*
X111308400Y-73914000D03*
X111308400Y-71374000D03*
X111308400Y-68834000D03*
X111308400Y-66294000D03*
X111308400Y-63754000D03*
X111308400Y-61214000D03*
X111308400Y-58674000D03*
X111308400Y-56134000D03*
X111308400Y-53594000D03*
X111308400Y-51054000D03*
X111308400Y-48514000D03*
%TD*%
D17*
%TO.C,B-*%
X111252000Y-45974000D03*
%TD*%
%TO.C,B+*%
X126492000Y-45974000D03*
%TD*%
M02*
